<?xml version="1.0" encoding="utf-8"?>
<!-- Generator: Adobe Illustrator 28.2.0, SVG Export Plug-In . SVG Version: 6.00 Build 0)  -->
<svg version="1.1" id="Layer_1" xmlns="http://www.w3.org/2000/svg" xmlns:xlink="http://www.w3.org/1999/xlink" x="0px" y="0px"
	 viewBox="0 0 2798 3078" style="enable-background:new 0 0 2798 3078;" xml:space="preserve">
<style type="text/css">
	.st0{opacity:0.2;}
	.st1{fill:#755893;}
	.st2{fill:#6FB643;}
	.st3{fill:#31174C;}
	.st4{fill:#4FAD32;}
	.st5{fill:#438433;}
	.st6{fill:#43A335;}
	.st7{fill:#515177;}
	.st8{fill:#777882;}
	.st9{fill:#5F5F82;}
	.st10{fill:#222233;}
	.st11{fill:#FFFFFF;}
	.st12{fill:#EDEDED;}
	.st13{opacity:0.3;}
	.st14{opacity:0.4;}
	.st15{opacity:0.35;}
	.st16{fill:#512717;}
	.st17{opacity:0.5;}
	.st18{fill:#E1ECCE;}
	.st19{fill:#BFDAA7;}
	.st20{fill:#FF0068;}
</style>
<g>
	<g class="st0">
		<ellipse class="st1" cx="1542.24" cy="2904.88" rx="799.24" ry="174.54"/>
	</g>
	<g>
		<g>
			<g>
				<g>
					<g>
						<path class="st2" d="M2183.01,1537.61c151.16-18.95,231.78-192.02,225.48-221.23c-6.3-29.21-109.16,123.85-185.05,135.47"/>
					</g>
					<g>
						<path class="st3" d="M2182.98,1557.61c-9.94,0-18.55-7.4-19.82-17.51c-1.38-10.96,6.4-20.96,17.36-22.33
							c73.07-9.16,125.16-57.27,155.99-96.02c15.43-19.39,27.08-38.41,35.43-54.74c-40.2,40.93-95.24,96.93-145.47,104.62
							c-10.93,1.67-21.13-5.83-22.8-16.74c-1.67-10.92,5.82-21.13,16.74-22.8c37.11-5.68,88.85-58.35,123.08-93.2
							c35.13-35.76,49.64-50.56,67.9-45.27c8.44,2.45,14.66,9.38,16.64,18.54c5.49,25.44-19.8,78.48-47.62,117.71
							c-29.98,42.28-95.17,115.07-194.92,127.58C2184.65,1557.56,2183.81,1557.61,2182.98,1557.61z"/>
					</g>
					<g>
						<path class="st4" d="M2390.23,1366.46c0,0,38.71-44.88,105.9-57.83c115.84-22.32,229.94,65.99,281.56,144.08
							c0,0-68.03-45.03-152.77-37.65C2576.05,1419.32,2456.31,1486.16,2390.23,1366.46"/>
					</g>
					<g>
						<path class="st5" d="M2452.32,1407.09c41.27,22.62,90.82,9.37,130.64-1.28c15.53-4.15,28.94-7.74,40.39-8.73
							c33.89-2.95,65.28,1.89,91.27,9.1c-32.14-12.82-63.09-24.73-91.29-22.36c-43.86,3.69-132.96,29.82-123.4-16.23
							c-33.77-8.43-27.79-25.61-3.77-35.76c-42.52,8.2-69.05,24.96-83.12,37.5c11.23,17.05,24.16,29.47,39.27,37.76
							C2452.32,1407.08,2452.32,1407.09,2452.32,1407.09"/>
					</g>
					<g>
						<path class="st3" d="M2777.68,1472.71c-3.82,0-7.66-1.09-11.03-3.32c-0.59-0.39-63.61-41.04-140-34.4
							c-8.13,0.71-20.05,3.9-33.85,7.59c-59.77,15.98-159.79,42.76-220.08-66.45c-4.04-7.32-3.1-16.39,2.36-22.73
							c1.77-2.05,44.09-50.31,117.26-64.41c130.91-25.22,252.33,77.5,302.03,152.69c5.24,7.93,4.18,18.45-2.55,25.17
							C2787.96,1470.72,2782.84,1472.71,2777.68,1472.71z M2415.62,1369.72c41.5,61.53,100.29,52.02,166.84,34.22
							c15.62-4.18,29.11-7.79,40.72-8.8c30.99-2.7,59.77,0.99,84.36,7.09c-53.18-48.5-128.92-89.14-207.62-73.96
							C2459.4,1336.08,2430.12,1357.14,2415.62,1369.72z"/>
					</g>
					<g>
						<path class="st2" d="M2377.31,1333.12c0,0,52.69-59.89,77.82-164.58c16.21-67.53,0.65-140.43,44.09-219.64
							c0,0-129.54,40.57-168.94,215.76C2304.22,1280.46,2377.31,1333.12,2377.31,1333.12"/>
					</g>
					<g>
						<path class="st6" d="M2375.14,1306.1c16.21-23.22,45.76-72.37,62.42-141.78c5.4-22.5-49.86,69.4-50.98-10.01
							c-47.73,79.25-15.79-87.49-38.69,14.32C2331.44,1241.78,2357.93,1286.17,2375.14,1306.1"/>
					</g>
					<g>
						<path class="st3" d="M2377.3,1353.12c-4.07,0-8.16-1.24-11.68-3.77c-3.42-2.47-83.48-61.84-54.86-189.07
							c41.45-184.31,176.73-228.65,182.48-230.45c7.77-2.43,16.27,0.09,21.45,6.41c5.18,6.31,5.99,15.14,2.07,22.29
							c-25.93,47.29-29.2,93.17-32.36,137.54c-1.81,25.37-3.68,51.6-9.81,77.15c-25.99,108.26-79.97,170.52-82.25,173.12
							C2388.39,1350.79,2382.87,1353.12,2377.3,1353.12z M2459.6,992.55c-37.54,26.74-87.95,79.31-109.81,176.5
							c-15.76,70.07,8.31,113.4,25.21,133.87c16.36-23.85,44.58-71.93,60.68-139.04c5.37-22.34,7.04-45.81,8.81-70.65
							C2446.71,1062.07,2449.12,1028.13,2459.6,992.55z"/>
					</g>
					<g>
						<path class="st3" d="M2687.06,1391.52c-10.65-7.11-22.44-12.22-34.38-16.48c-12-4.16-24.36-7.17-36.84-9.1
							c-12.48-1.93-25.06-3.07-37.65-2.98c-6.29-0.19-12.57,0.26-18.84,0.55c-6.27,0.29-12.38,1.04-18.52,2.05
							c-12.25,2.03-24.3,5.25-36.47,8.86c-12.18,3.59-24.54,7.55-37.65,10.37c-13.07,2.84-27.05,4.31-41.08,3.11
							c-14.05-1.08-27.78-4.89-40.59-10.15c-6.35-2.6-9.39-9.87-6.78-16.22c2.6-6.35,9.86-9.39,16.22-6.79
							c0.31,0.12,0.6,0.27,0.89,0.41l0.06,0.03c10.45,5.31,21.39,9.34,32.79,11.17c11.4,1.93,23.23,1.74,35.32,0.15
							c24.16-3.21,49.43-11.13,75.81-13.12c6.55-0.55,13.22-0.79,19.74-0.58c6.52,0.21,13.03,0.28,19.52,0.99
							c12.98,0.94,25.84,3.16,38.45,6.15c12.61,2.99,24.94,7.07,36.75,12.25C2665.55,1377.46,2677,1383.57,2687.06,1391.52"/>
					</g>
					<g>
						<path class="st3" d="M2447.81,1005.76c-12.04,24.41-22.52,49.53-31.96,74.96c-9.34,25.46-17.57,51.3-23.95,77.48
							c-3.25,13.07-6,26.24-8.16,39.46c-2.22,13.2-3.86,26.46-4.65,39.69c-1.8,26.41-0.22,52.89,6.42,77.33l0.05,0.17
							c1.79,6.63-2.12,13.46-8.75,15.26c-6.63,1.8-13.46-2.12-15.26-8.75c-0.08-0.3-0.15-0.63-0.22-0.93
							c-5.46-28.69-4.74-57.37-0.77-84.99c1.89-13.85,4.65-27.48,7.97-40.9c3.27-13.45,7.11-26.7,11.43-39.75
							c8.54-26.15,18.83-51.57,30.16-76.43C2421.54,1053.53,2433.94,1029.19,2447.81,1005.76"/>
					</g>
					<g>
						<path class="st7" d="M2138.14,1619.02c116.3,93.47,115.96,245.41,47.45,323.93c-59.22,67.87-174,83.35-222.6,43.48
							c-85.06-69.77-165.13-53.92-165.13-155.42C1797.86,1696.84,2018.09,1522.53,2138.14,1619.02"/>
					</g>
					<g>
						<path class="st3" d="M2036.17,2028.45c-33.16,0-63.83-8.47-85.86-26.55c-27.76-22.77-55.43-36.04-79.85-47.74
							c-47.62-22.83-92.6-44.4-92.6-123.15c0-93.56,90.83-193,178.63-235.08c73.59-35.27,144.37-32.53,194.18,7.5
							c58.58,47.09,94.33,112.38,100.65,183.85c5.65,63.91-12.81,125.44-50.66,168.82
							C2160.35,2002.3,2094.42,2028.44,2036.17,2028.45z M2056.15,1611.09c-31.95,0-62.33,11.31-82.37,20.91
							c-85.97,41.2-155.92,130.48-155.92,199.01c0,53.56,23.36,64.77,69.9,87.08c25.14,12.06,56.43,27.06,87.92,52.88
							c39.58,32.47,143.17,18.05,194.85-41.17c30.27-34.69,45.58-86.66,40.95-139c-5.35-60.52-35.84-115.99-85.86-156.19l0,0
							C2103.96,1617.2,2079.63,1611.09,2056.15,1611.09z"/>
					</g>
					<g>
						<path class="st8" d="M1829.47,2101.78c95.53,17.1,371.44,145.51,343.25,400.75c-15.71,142.23-140.32,230.08-192.56,251.65
							c113.79,90.72,66.16,206.68-71.89,223.24c-123,14.76-309.28-37.21-323.44-365.46L1829.47,2101.78z"/>
					</g>
					<g>
						<path class="st9" d="M2172.73,2502.55c-4.27,38.6-16.57,73.18-33.22,103.49c-44.81,81.5-121.3,132.4-159.36,148.14
							c11.18,8.9,20.83,18.06,28.94,27.37c22.66,25.84,33.72,52.72,34.71,77.98c2.19,57.9-48.87,107.47-135.55,117.86
							c-123,14.78-309.28-37.19-323.44-365.44L1725.33,2319l104.16-217.22C1924.99,2118.89,2200.89,2247.31,2172.73,2502.55"/>
					</g>
					<g>
						<path class="st7" d="M1980.15,2754.18c11.18,8.9,20.83,18.06,28.94,27.38c-98.9,46.63-219.74,14-235.77,32.97
							c-50.73,60.05,81.09,122.88,187.4,95.96c46.3-11.72,70.49-32.92,83.08-50.94c2.19,57.9-48.87,107.47-135.55,117.86
							c-123,14.78-309.28-37.19-323.44-365.44L1725.33,2319c78.31-40.75,150.75-62.37,192.95-37.69
							c164.62,96.29-114.22,304.06-8.62,360.63c41.29,22.16,143.25,32.88,229.85-35.91
							C2094.7,2687.55,2018.2,2738.44,1980.15,2754.18"/>
					</g>
					<g>
						<path class="st3" d="M1871.49,2999.61c-51.02,0-120.87-11.87-182.07-63.85c-76.21-64.73-118.12-173.38-124.57-322.94l-0.21-5
							l253.38-528.41l14.98,2.68c106.37,19.05,389.2,154.59,359.6,422.63c-14.68,132.98-117.47,218.95-177.43,254.01
							c41.16,41.7,57.29,89.72,44.45,134.91c-15.8,55.59-71.48,94.33-148.96,103.63
							C1899.65,2998.59,1886.37,2999.61,1871.49,2999.61z M1605.04,2616.06c6.62,135.39,43.71,232.67,110.28,289.21
							c67.47,57.3,148.36,57.36,190.57,52.29c60.02-7.2,104.18-35.88,115.25-74.85c10.35-36.42-9.13-77.57-53.44-112.9l-26.55-21.16
							l31.38-12.96c41.95-17.32,165.11-97.74,180.31-235.35c14.27-129.24-56.48-219.4-118.34-272.28
							c-67.42-57.62-147.31-91.46-193.84-103.35L1605.04,2616.06z"/>
					</g>
					<g>
						<path class="st3" d="M1762.77,2767.54c18.26,1.74,36.56,1.97,54.75,1.4c18.19-0.56,36.3-2.07,54.19-4.56
							c8.96-1.05,17.82-2.8,26.68-4.28c8.79-1.92,17.61-3.49,26.24-5.86c17.39-4.1,34.24-9.89,50.77-15.93l9.53,31.73
							c-18.7,3.81-37.36,7.16-56.14,8.7c-9.35,1.1-18.75,1.35-28.08,1.94c-9.37,0.15-18.69,0.55-28.02,0.24
							c-18.62-0.23-37.17-1.49-55.52-3.7C1798.8,2775.01,1780.58,2772,1762.77,2767.54"/>
					</g>
					<g>
						<path class="st3" d="M1918.27,2690.28c-21.23,3.75-42.81,5.92-64.46,7.14c-21.67,1.16-43.46,1.14-65.29,0
							c-21.85-1.01-43.7-3.59-65.48-7.44l-16.33-3.1l-16.21-3.95l-8.13-2l-8.01-2.47l-16.08-4.97l12.66-30.61l14.11,6.42l7.08,3.23
							l7.27,2.8l14.6,5.63l14.93,4.87c20.02,6.27,40.58,11.44,61.5,15.12c20.9,3.81,42.1,6.58,63.45,8.17
							C1875.25,2690.68,1896.75,2691.29,1918.27,2690.28"/>
					</g>
					<g>
						<path class="st7" d="M1250.24,2078.68c-95.53,17.1-371.44,145.51-343.25,400.75c15.71,142.23,140.33,230.08,192.56,251.64
							c-113.79,90.72-66.16,206.68,71.89,223.24c123,14.76,309.28-37.21,323.44-365.46L1250.24,2078.68z"/>
					</g>
					<g>
						<path class="st3" d="M1208.22,2976.51c-14.89,0-28.16-1.01-39.16-2.33c-77.49-9.3-133.17-48.04-148.96-103.64
							c-12.84-45.19,3.29-93.21,44.45-134.91c-59.96-35.06-162.74-121.02-177.43-254c-29.6-268.04,253.23-403.59,359.6-422.63
							l14.98-2.68l253.38,528.41l-0.21,5c-6.45,149.55-48.36,258.2-124.57,322.93C1329.09,2964.63,1259.24,2976.51,1208.22,2976.51z
							 M1239.06,2101.61c-46.53,11.89-126.42,45.73-193.84,103.35c-61.87,52.87-132.62,143.03-118.35,272.28
							c15.2,137.62,138.37,218.03,180.32,235.35l31.39,12.96l-26.55,21.16c-44.31,35.33-63.79,76.48-53.45,112.9
							c11.07,38.97,55.23,67.65,115.25,74.85c42.22,5.07,123.11,5.01,190.57-52.3c66.56-56.54,103.65-153.82,110.27-289.2
							L1239.06,2101.61z"/>
					</g>
					<g>
						<path class="st8" d="M1316.94,2744.44c0,0-105.16,20.34-217.39-13.36"/>
					</g>
					<g>
						<path class="st10" d="M1316.94,2744.44c-17.81,4.46-36.04,7.47-54.39,9.67c-18.35,2.21-36.9,3.47-55.52,3.7
							c-9.32,0.31-18.64-0.09-28.02-0.23c-9.33-0.59-18.74-0.84-28.08-1.94c-18.79-1.54-37.44-4.89-56.14-8.7l9.53-31.73
							c16.53,6.04,33.38,11.83,50.77,15.93c8.63,2.38,17.44,3.94,26.24,5.86c8.85,1.48,17.71,3.23,26.67,4.27
							c17.89,2.49,36,4,54.19,4.56C1280.38,2746.41,1298.68,2746.17,1316.94,2744.44"/>
					</g>
					<g>
						<path class="st8" d="M1161.43,2667.18c0,0,133.56,17.6,253.66-32.1"/>
					</g>
					<g>
						<path class="st10" d="M1161.43,2667.18c21.52,1.01,43.03,0.4,64.38-1.14c21.36-1.59,42.56-4.36,63.45-8.17
							c20.92-3.68,41.48-8.86,61.5-15.12l14.93-4.87l14.6-5.63l7.27-2.8l7.08-3.24l14.11-6.42l12.66,30.61l-16.08,4.97l-8.01,2.47
							l-8.13,2l-16.21,3.95l-16.33,3.1c-21.77,3.85-43.63,6.43-65.48,7.44c-21.83,1.14-43.62,1.16-65.29,0
							C1204.24,2673.1,1182.66,2670.93,1161.43,2667.18"/>
					</g>
				</g>
				<g>
					<g>
						<path class="st11" d="M1554.72,1557.2c266.4,158.95,659.38,759.97,200.48,1052c-260.32,165.66-820.3,52.64-729.14-707.68
							c0,0,1.4-245.78,152.08-363.91C1328.81,1419.47,1554.72,1557.2,1554.72,1557.2"/>
					</g>
					<g>
						<path class="st12" d="M1755.2,2609.2c-242.6,154.39-745.46,66.71-738.99-561.33c0.45-45.89,3.64-94.64,9.85-146.36
							c0,0,1.41-245.79,152.07-363.91c150.66-118.12,376.58,19.58,376.58,19.58c48.58,28.99,101.38,72.73,152.45,126.57
							C1936.14,1925.16,2130.42,2370.45,1755.2,2609.2"/>
					</g>
					<g>
						<path class="st7" d="M1707.16,1683.76c-148.68,292.18-533.04,351.93-690.95,364.11c0.46-45.89,3.64-94.64,9.86-146.36
							c0,0,1.41-245.8,152.07-363.91c150.66-118.12,376.57,19.58,376.57,19.58C1603.29,1586.18,1656.1,1629.92,1707.16,1683.76"/>
					</g>
					<g>
						<path class="st3" d="M1515.82,2695.52c-92.71,0-186.58-24.96-265.66-74.73c-114.77-72.23-299.07-262.02-243.96-721.65
							c1.32-10.97,11.29-18.77,22.24-17.48c10.97,1.32,18.79,11.27,17.48,22.24c-38.9,324.45,41.2,567.02,225.55,683.03
							c166.33,104.68,361.78,76.16,472.99,5.39c136.11-86.61,204.02-206.66,201.87-356.79c-3.94-273.67-240.11-564.65-401.86-661.16
							c-9.48-5.66-12.59-17.94-6.92-27.42c5.65-9.48,17.93-12.59,27.42-6.93c94.21,56.21,197.7,161.51,276.84,281.66
							c91.36,138.71,142.69,285.48,144.52,413.28c2.34,162.63-73.87,297.87-220.39,391.11
							C1693.11,2672.42,1605,2695.52,1515.82,2695.52z"/>
					</g>
					<g>
						<path class="st8" d="M1111.32,1928.45c-1.38,44.23,11.74,93.22,11.74,93.22l40.12,0.48c0,0,80.69,295.08,7.25,334.42
							c-115.96,62.12-265.45,41.41-312.69-104.2c-44.91-138.46,20.03-354.12,160.02-499.07c24.28-30.37,125.05-38.65,125.05-38.65"
							/>
					</g>
					<g>
						<path class="st8" d="M1170.43,2356.57c-115.96,62.12-265.46,41.41-312.68-104.2c-26.42-81.42-14.87-189.56,27.67-294.33
							c29.73-73.34,74.67-145.08,132.36-204.75c24.26-30.36,125.03-38.64,125.03-38.64l-31.47,213.78
							c-0.79,24.23,2.82,49.86,6.21,68.08c2.82,15.12,5.51,25.14,5.51,25.14l40.13,0.5
							C1163.18,2022.15,1243.86,2317.23,1170.43,2356.57"/>
					</g>
					<g>
						<path class="st9" d="M1177.97,2351.14c-2.28,2.16-4.8,3.98-7.54,5.43c-115.96,62.12-265.46,41.41-312.68-104.2
							c-8.03-24.68-12.55-51.89-13.71-80.67c-2.86-66.06,11.76-140.68,41.37-213.66c29.74-73.34,74.67-145.07,132.36-204.75
							c24.27-30.36,125.03-38.64,125.03-38.64l-31.47,213.78c-0.79,24.22,2.82,49.86,6.21,68.08c2.82,15.12,5.51,25.14,5.51,25.14
							l40.13,0.5C1163.18,2022.15,1237.98,2295.73,1177.97,2351.14"/>
					</g>
					<g>
						<path class="st7" d="M1177.97,2351.14c-2.28,2.16-4.8,3.98-7.54,5.43c-115.96,62.12-265.46,41.41-312.68-104.2
							c-8.03-24.68-12.55-51.89-13.71-80.67c20.83,68.66,74.92,139.11,138.61,134.14c75.91-5.93,18.47-70.94,82.37-170.3
							c34.34-53.38,112.65,156.84,112.65,156.84S1178.34,2319.92,1177.97,2351.14"/>
					</g>
					<g>
						<path class="st7" d="M1117.55,1996.52c-61.54-60.55-162.34-53.42-232.13-38.47c29.74-73.34,74.67-145.07,132.36-204.75
							c24.27-30.36,125.03-38.64,125.03-38.64l24.28,140.93l-55.75,72.85C1110.55,1952.66,1114.15,1978.29,1117.55,1996.52"/>
					</g>
					<g>
						<path class="st3" d="M1111.32,1928.45c2.36,15.78,6.28,31,11.07,45.87c2.4,7.43,4.99,14.78,7.78,22.01
							c2.78,7.15,5.8,14.56,8.9,21.05l-15.8-12.28l40.12,0.48l12.5,0.15l3.28,12.04v0c6.99,26.3,12.94,52.24,18.36,78.61
							c5.38,26.31,10.08,52.8,13.72,79.58c3.61,26.77,6.26,53.82,6.58,81.42c0.12,13.81-0.33,27.75-2.12,41.98
							c-1.88,14.19-4.65,28.75-11.73,43.52c-3.59,7.32-8.49,14.77-15.52,21.1c-1.73,1.58-3.71,3.02-5.64,4.42l-3.11,1.91l-1.54,0.9
							l-1.17,0.61c-3.09,1.64-6.22,3.23-9.38,4.77c-12.62,6.13-25.66,11.43-39.04,15.76c-26.74,8.68-54.87,13.6-83.31,13.76
							c-28.41,0.14-57.22-4.64-84.11-15.37c-26.88-10.68-51.52-27.54-71.14-48.89c-19.68-21.34-34.25-46.74-44.12-73.27
							c-5.03-13.25-8.64-26.96-11.69-40.66c-2.75-13.76-4.76-27.61-5.85-41.47c-4.27-55.54,3.33-110.64,17.61-163.28
							c14.28-52.74,35.75-103.21,62.57-150.55c26.9-47.31,59.43-91.5,97.32-130.82l-1.02,1.16c5.39-6.58,11.31-10.85,17.05-14.41
							c5.78-3.54,11.52-6.17,17.23-8.54c11.44-4.68,22.77-7.95,34.1-10.75c11.33-2.77,22.63-4.93,33.95-6.77
							c11.4-1.81,22.47-3.28,34.3-4.35c9.11-0.83,17.17,5.89,18,15c0.83,9.11-5.88,17.17-15,17.99l-0.29,0.03
							c-10.28,0.94-21.23,2.37-31.76,4.05c-10.59,1.72-21.1,3.74-31.35,6.25c-10.22,2.51-20.26,5.46-29.37,9.2
							c-4.53,1.87-8.9,3.91-12.59,6.19c-3.69,2.24-6.76,4.76-8.42,6.8l-0.51,0.63l-0.52,0.54c-35.82,37.17-66.76,79.17-92.34,124.17
							c-25.52,45.02-45.93,93.07-59.41,142.89c-13.52,49.7-20.47,101.41-16.56,151.93c0.99,12.61,2.81,25.07,5.26,37.35
							c2.73,12.19,5.89,24.24,10.28,35.83c8.63,23.18,21.08,44.65,37.44,62.41c16.35,17.76,36.59,31.63,59.07,40.58
							c22.48,8.97,47.01,13.13,71.67,13.01c24.68-0.13,49.49-4.42,73.24-12.14c11.89-3.84,23.5-8.56,34.77-14.03
							c2.81-1.38,5.6-2.79,8.37-4.26l1.04-0.54l0.6-0.38l1.13-0.68c0.72-0.58,1.47-1.06,2.18-1.72c2.84-2.57,5.54-6.3,7.78-10.88
							c4.51-9.22,7.1-21.08,8.63-33.13c1.54-12.13,1.97-24.79,1.86-37.52c-0.29-25.52-2.78-51.44-6.28-77.27
							c-3.51-25.85-8.09-51.68-13.35-77.39c-5.27-25.64-11.21-51.48-17.87-76.51l15.78,12.19l-40.12-0.48h-14.65l-1.15-12.28
							c-0.82-8.72-1.11-16.67-1.3-24.94c-0.16-8.19-0.09-16.35,0.2-24.49C1106.56,1960.28,1108.15,1944.08,1111.32,1928.45"/>
					</g>
					<g>
						<path class="st9" d="M1472.38,500.5c-165.91-85.42-180.29-184.59-159.94-256.78c25.71-91.19,81.77-200.68,203.67-221.55
							c173.7-29.74,327.71,82.65,316.95,257.52c-6.44,104.49-55.09,175.52-105.36,221.63
							C1671.25,553.1,1595.33,563.79,1472.38,500.5"/>
					</g>
					<g>
						<path class="st7" d="M1659.5,174.71c135.49,47.47,128.13,261.83-12.14,312.3c-104.01,37.42-328.74-116.15-319.57-146.4
							c35.22-116.23,140.01-28.98,247.3,22.38C1665.62,406.33,1571.51,143.88,1659.5,174.71"/>
					</g>
					<g class="st13">
						<g>
							<g>
								<path class="st11" d="M1294.6,331.94c23.7-99.22,81.12-231.87,219.52-255.55c144.79-24.75,276.52,44.65,318.71,166.29
									c-11.4-153.39-155.6-248.09-316.69-220.51C1349.17,50.77,1305.71,245.58,1294.6,331.94"/>
							</g>
						</g>
					</g>
					<g>
						<path class="st3" d="M1286.95,326.52c-0.56-25.72,2.59-51.31,7.9-76.51c5.22-25.25,13.47-49.91,23.63-73.89
							c10.11-24,22.55-47.28,37.75-69.03c7.63-10.86,16.09-21.21,25.14-31.1c9.3-9.67,19.05-19.03,29.95-27.12
							c10.82-8.13,22.22-15.62,34.4-21.69c12.02-6.37,24.78-11.23,37.7-15.33c6.54-1.75,13.02-3.84,19.67-5.01l9.93-2.03l9.79-1.44
							c13.04-2,26.25-2.88,39.46-3.33c26.43-0.66,52.99,2.03,78.9,7.82c25.93,5.77,51.02,15.39,74.59,27.89
							c46.83,25.43,86.83,65.29,109.57,114.21c11.81,24.18,18.92,50.43,22.51,76.86c3.8,26.5,2.37,53.38-0.72,79.25
							c-3.7,25.99-9.64,51.78-18.84,76.55c-9.44,24.65-21.7,48.24-36.57,70.01c-29.72,43.69-69.58,79.49-114,106.82
							c-7.79,4.8-18,2.36-22.79-5.43c-4.8-7.79-2.37-17.99,5.42-22.79l0.1-0.06c40.86-25.16,77.18-57.9,103.91-97.24
							c13.4-19.62,24.4-40.79,32.91-62.96c8.26-22.28,13.62-45.57,17-69.19c2.81-23.85,4.08-47.46,0.72-70.71
							c-3.16-23.17-9.31-45.95-19.55-66.85c-19.8-42.23-54.54-76.53-95.72-98.72c-20.74-10.9-42.97-19.2-66.04-24.1
							c-23.06-4.92-46.76-7.14-70.45-6.33c-23.62,0.99-47.64,4-69.46,10.56c-10.94,3.52-21.71,7.6-31.83,13.01
							c-10.27,5.11-19.89,11.49-29.08,18.41c-36.94,27.85-64.18,68.42-83.48,112.38c-19.1,44.35-31.68,91.45-45.99,139.31
							c-1.33,4.44-6,6.96-10.44,5.63C1289.35,333.31,1287.03,330.05,1286.95,326.52"/>
					</g>
					<g>
						<path class="st11" d="M1714.31,274.6c1.78,10.93,2.19,21.31,1.41,31.16c-5.11,69.53-66,113.5-94.44,124.23
							c-54.83,20.7-137.36-6.15-165.21-59.82c-19.87-38.34-41.24-153.15,63.01-203.99c33.28-16.22,66.76-20.02,96.51-12.65l0.07,0
							C1664.65,165.64,1703.44,207.94,1714.31,274.6"/>
					</g>
					<g>
						<path class="st12" d="M1715.72,305.77c-5.11,69.53-66,113.5-94.44,124.23c-54.83,20.7-137.36-6.15-165.21-59.82
							c-19.87-38.34-41.24-153.15,63.01-203.99c33.28-16.23,66.75-20.02,96.51-12.65c-123.68,7.95-121.3,139.39-36.24,186.37
							C1651.39,379.69,1699.05,346.45,1715.72,305.77"/>
					</g>
					<g>
						<path class="st3" d="M1580.24,457.05c-56.9,0-117.6-30.78-141.91-77.67l0,0c-11.92-23-29.37-81.88-10.1-140.11
							c13.35-40.36,40.97-71,82.09-91.05c48.38-23.59,98.31-24.54,140.59-2.65c44.11,22.83,73.64,67.51,83.15,125.81
							c15.97,97.79-64.32,161.71-105.7,177.35C1613.33,454.39,1596.94,457.05,1580.24,457.05z M1585.7,169.89
							c-18.72,0-38.34,4.77-57.85,14.28c-31.07,15.15-51.81,37.91-61.65,67.66c-13.98,42.28-3.09,88.44,7.65,109.15v0
							c22.18,42.81,93.03,68.21,140.38,50.33c19.09-7.21,93.39-53.64,80.36-133.49c-7.43-45.5-29.47-79.85-62.07-96.73
							C1618.09,173.61,1602.24,169.89,1585.7,169.89z"/>
					</g>
					<g>
						<path class="st9" d="M490.36,794.96c91.54-162.61,48.98-253.34-7.73-302.41c-71.64-62-178.71-122.58-291.98-72.93
							C29.24,490.35-37.52,668.95,67.69,809.03c62.87,83.71,142.58,116.25,209.93,127.09C353.25,948.3,422.53,915.46,490.36,794.96"
							/>
					</g>
					<g>
						<path class="st7" d="M154.86,625.88c-87.01,114.19,37.08,289.13,181.97,254.09c107.44-25.99,210.59-277.88,186.3-298.09
							c-93.37-77.67-132.86,52.84-194.19,154.76C277.19,822.65,211.37,551.71,154.86,625.88"/>
					</g>
					<g class="st13">
						<g>
							<g>
								<path class="st11" d="M546.07,556.38c-74.38-69.81-195.32-148.98-323.92-92.6C87.64,522.78,15.82,653.21,47.53,778
									c-74.88-134.35-6.58-292.77,143.11-358.39C345.8,351.63,489.27,490.38,546.07,556.38"/>
							</g>
						</g>
					</g>
					<g>
						<path class="st3" d="M537,558.54c-38.29-32.08-74.71-64.49-115.06-91.02c-40.3-26.08-85.37-44.98-131.54-47.9
							c-11.49-0.72-23.03-0.75-34.42,0.63c-11.43,1.04-22.67,3.57-33.74,6.65c-21.83,6.53-43.55,17.24-63.82,29.41
							c-20.22,12.35-38.8,27.25-55.34,44.04c-16.57,16.79-30.56,35.95-41.89,56.46c-22.17,41.19-32.31,88.95-25.6,135.1
							c2.95,23.09,10.35,45.49,20.46,66.58c9.99,21.27,24.04,40.28,39.51,58.65c15.82,17.86,33.11,34.36,52.26,48.42
							c19.3,13.82,40.13,25.45,62.12,34.47c43.97,18.14,92.32,25.49,140.27,24.02l0.12,0c9.14-0.28,16.78,6.9,17.07,16.05
							c0.28,9.14-6.9,16.79-16.04,17.07c-52.14,1.62-105.12-6.34-153.97-26.47c-24.4-10-47.61-22.95-69.06-38.34
							c-21.31-15.63-40.47-33.89-57.85-53.56c-16.81-19.9-32.8-41.55-44.2-65.77c-11.56-24.05-20.06-49.88-23.5-76.57
							c-7.92-53.36,3.55-108.66,28.66-155.66c12.8-23.41,28.45-45.24,46.93-64.33c18.45-19.09,39.15-35.95,61.58-49.95
							c11.27-6.89,22.78-13.43,34.77-18.93l8.97-4.19l9.41-3.77c6.2-2.69,12.76-4.5,19.18-6.64c13.04-3.68,26.36-6.65,39.91-7.94
							c13.51-1.64,27.15-1.66,40.66-0.82c13.54,0.75,26.84,3.21,39.93,6.16c13,3.28,25.76,7.27,38.11,12.14
							c24.66,9.8,47.86,22.39,69.51,36.88c21.68,14.43,42.14,30.48,60.39,48.69c18.3,18.12,35.01,37.76,48.7,59.54
							c2.46,3.92,1.29,9.09-2.63,11.56C543.69,561.2,539.71,560.81,537,558.54"/>
					</g>
					<g>
						<path class="st11" d="M164.05,739.45c4.53,10.1,9.9,19,15.97,26.8c42.52,55.25,117.56,58.46,147.21,51.77
							c57.18-12.88,111.32-80.72,105.04-140.86c-4.51-42.95-49.83-150.58-164.87-135.66c-36.71,4.77-66.75,20.01-87.55,42.54
							l-0.06,0.03C145.57,621.14,136.45,677.8,164.05,739.45"/>
					</g>
					<g>
						<path class="st12" d="M180.03,766.25c42.52,55.25,117.56,58.46,147.21,51.77c57.18-12.88,111.32-80.71,105.04-140.85
							c-4.51-42.95-49.83-150.58-164.86-135.67c-36.72,4.77-66.76,20.01-87.55,42.54c107.65-61.41,177.98,49.65,132.81,135.68
							C274.42,792.57,216.33,791.04,180.03,766.25"/>
					</g>
					<g>
						<path class="st3" d="M300.63,840.6c-49.58,0-122.24-20.13-154.85-92.99c-24.13-53.91-24.05-107.46,0.21-150.8
							c23.26-41.54,65.47-68.23,118.85-75.15c45.36-5.88,85.28,4.5,118.64,30.85c48.13,38.03,65.96,96.8,68.67,122.56v0
							c7.12,67.96-51.46,146.91-120.52,162.46C323.24,839.43,312.61,840.6,300.63,840.6z M288.54,560.1
							c-6.03,0-12.21,0.41-18.55,1.23c-40.53,5.26-72.17,24.8-89.1,55.02c-17.93,32.03-17.44,72.84,1.4,114.91
							c33.06,73.85,120.65,71.73,140.55,67.24c49.37-11.11,94.55-71.3,89.53-119.26l0,0c-2.43-23.2-18.74-67.74-53.68-95.35
							C338.66,568.07,315.13,560.1,288.54,560.1z"/>
					</g>
					<g>
						<path class="st11" d="M1405.14,1671.65c267.34-80.16,521.43-267.54,556.97-475.58c26.79-156.79-64.79-282.41-64.88-282.61
							c-4.17-7.71-142-591.25-644.62-659.16c-141.71-19.15-263.46,0.9-379.46,34.19c-115.18,36.02-227.87,86.28-335.67,180.24
							C155.18,802,361.18,1365.1,361.93,1373.83c0.05,0.22-7.31,155.5,101.33,271.68c144.15,154.15,459.42,170.81,726.76,90.64
							L1405.14,1671.65z"/>
					</g>
					<g class="st0">
						<path class="st3" d="M490.34,1671.22c153.89,130.05,448.04,140.38,699.66,64.94c71.53-17.99,142.24-39.14,211.9-63.38
							l3.26-1.13c242.27-72.65,473.67-233.33,541.35-417.7c-110.64,157.73-427.56,320.72-666.23,392.29
							C1041.62,1717.79,670.88,1753.94,490.34,1671.22"/>
					</g>
					<g>
						<path class="st3" d="M1405.14,1671.65c40.45-19.13,80.43-37.49,119.61-57.2c39.13-19.78,77.59-40.42,115.11-62.58
							c37.43-22.27,73.74-46.45,107.64-73.55c17.13-13.33,33.36-27.71,49.28-42.33c15.72-14.84,30.81-30.28,45.07-46.4
							c14.05-16.27,27.52-33.01,39.61-50.62c12-17.65,22.97-35.93,32.41-54.87c9.21-19.04,16.92-38.68,22.69-58.79
							c1.31-5.06,2.75-10.08,3.97-15.15l3.09-15.31c0.93-5.13,1.36-10.37,2.08-15.56c0.58-5.2,1.47-10.37,1.81-15.6
							c2.91-41.81-1.81-84.21-13.34-124.89c-5.66-20.38-13.26-40.25-21.93-59.57c-2.23-4.8-4.36-9.66-6.85-14.33
							c-2.39-4.73-4.76-9.45-7.38-14.03c-2.51-4.66-5.19-9.16-7.89-13.65c-1.34-2.25-2.77-4.39-4.15-6.59
							c-0.69-1.11-1.4-2.12-2.1-3.18l-1.06-1.57l-0.63-0.92l-0.95-1.52c-0.61-1.03-1.17-2.09-1.67-3.16l1.01,2.18
							c-0.9-1.94-1.82-4.41-2.33-6.12l-0.77-2.63l-1.51-5.16l-2.99-10.06l-6.2-19.96c-4.31-13.26-8.79-26.46-13.57-39.57
							c-9.55-26.21-19.77-52.21-31.13-77.7c-11.32-25.5-23.27-50.73-36.45-75.3c-6.35-12.42-13.38-24.44-20.21-36.59
							c-3.35-6.11-7.15-11.95-10.71-17.93c-3.66-5.92-7.12-11.97-10.93-17.79c-29.92-46.91-63.53-91.4-101.25-131.97
							c-4.56-5.22-9.51-10.06-14.39-14.95l-14.65-14.7c-9.99-9.55-20.41-18.64-30.58-27.99c-10.76-8.65-21.3-17.58-32.21-26.01
							l-16.74-12.14c-5.64-3.96-11.01-8.33-16.92-11.87c-45.82-30.61-95.48-55.29-147.6-72.94
							c-52.18-17.65-106.36-28.58-161.78-32.88c-27.61-2.29-55.33-3.22-83.03-2.7c-27.71,0.58-55.38,2.68-82.95,6.04
							c-55.05,6.69-109.89,18.91-163.36,34.15c-53.09,16.5-105.7,36.28-155.47,60.81c-24.93,12.27-49.27,25.68-72.81,40.36
							c-23.51,14.74-46.23,30.7-68.1,47.78c-44.05,34.01-83.55,72.88-117.54,116.42c-33.96,43.48-61.99,91.52-83.53,142.41
							c-3.01,6.22-5.11,12.84-7.65,19.27l-7.35,19.39c-4.5,13.08-8.42,26.37-12.67,39.54c-3.38,13.44-7.1,26.79-10.21,40.3
							l-4.19,20.38c-1.4,6.79-2.89,13.57-3.83,20.45c-9.27,54.76-12.94,110.54-12.19,166.3c0.02,6.97,0.44,13.94,0.64,20.91
							c0.32,6.97,0.34,13.95,0.9,20.91c0.97,13.93,1.7,27.87,3.21,41.77c2.48,27.83,6.35,55.54,10.9,83.12
							c4.51,27.6,10.39,54.97,16.98,82.14c3.3,13.58,6.9,27.09,10.66,40.54l5.91,20.09l3.09,10.04l1.6,5.13l0.81,2.61
							c0.48,1.62,1.04,4.01,1.35,6l-0.32-2.13c0.15,1.08,0.26,2.19,0.31,3.3l0.04,1.66l-0.01,1.05l-0.01,1.91
							c0,1.28-0.02,2.53,0.02,3.85c0.07,2.61,0.07,5.2,0.2,7.83c0.24,5.26,0.5,10.53,1,15.82c0.36,5.28,1.01,10.56,1.64,15.84
							c0.53,5.28,1.45,10.53,2.26,15.78c3.49,20.97,8.2,41.79,14.89,61.93c13.12,40.34,32.86,78.27,58.57,111.4
							c25.77,33.25,58.39,59.91,94.89,81.27c18.36,10.46,37.58,19.54,57.29,27.63c19.77,7.98,40.2,14.48,60.86,20.26
							c20.76,5.5,41.77,10.23,63.03,13.97c21.3,3.49,42.72,6.61,64.33,8.36c43.14,4.25,86.74,4.82,130.26,3.14
							c43.53-1.84,87.04-5.64,130.63-10.56c43.58-5.09,87.09-11.82,131.27-18.5c-40.68,18.52-83.46,32.22-127.05,42.55
							c-43.65,10.13-88.19,16.82-133.06,19.75c-89.63,5.67-180.91,0.92-269.2-22.45c-21.97-6.1-43.79-13-65.1-21.56
							c-21.28-8.61-42.11-18.56-62.13-30.18c-19.91-11.82-39-25.23-56.75-40.43c-4.35-3.9-8.77-7.72-13.02-11.74l-12.35-12.51
							c-4.02-4.24-7.62-8.82-11.45-13.22c-3.72-4.49-7.67-8.8-11.17-13.44c-28.19-37.11-49.35-79.15-63.11-123.12l-4.88-16.58
							c-1.53-5.55-2.73-11.17-4.14-16.75c-1.45-5.57-2.51-11.22-3.59-16.87c-1.13-5.64-2.22-11.28-2.98-16.98
							c-0.84-5.69-1.79-11.36-2.34-17.09c-0.65-5.72-1.31-11.43-1.67-17.19c-0.51-5.74-0.77-11.53-1-17.32
							c-0.13-2.89-0.12-5.84-0.17-8.76c-0.04-1.45,0-2.97,0.01-4.46l0.02-2.24l0-0.28l0,0.3c0.01,0.21,0.03,0.41,0.07,0.62
							c0.07,0.42,0.19,0.83,0.36,1.22l-0.32-2.13c-0.15,0.29-0.03,0.95-0.03,0.87l-0.75-2.47l-1.54-5.03l-3.11-10.3l-5.98-20.74
							c-3.8-13.88-7.42-27.8-10.74-41.78c-6.68-27.96-12.36-56.14-17.11-84.48c-4.73-28.34-8.77-56.82-11.38-85.48
							c-1.58-14.3-2.37-28.67-3.39-43.03c-0.58-7.17-0.64-14.38-0.98-21.57c-0.22-7.2-0.66-14.38-0.7-21.59
							c-0.89-57.6,2.78-115.45,12.34-172.54c0.97-7.16,2.5-14.25,3.95-21.34l4.34-21.28c3.22-14.12,7.08-28.11,10.61-42.16
							c4.41-13.82,8.5-27.75,13.2-41.48l7.67-20.39c2.66-6.76,4.87-13.7,8.01-20.26c22.55-53.57,52.05-104.36,87.8-150.32
							c35.67-45.93,77.64-87.27,123.28-122.63c22.79-17.85,46.46-34.6,70.95-50.08c24.52-15.42,49.85-29.5,75.75-42.36
							c51.9-25.78,105.69-46.24,160.81-63.58c55.5-16.05,111.65-28.77,169.18-36.01c28.71-3.61,57.63-5.91,86.62-6.63
							c28.99-0.66,58.02,0.2,86.92,2.5c57.65,4.29,115.63,15.5,170.85,34.22c55.3,18.68,108.06,44.86,156.54,77.22
							c6.26,3.76,11.94,8.34,17.9,12.52l17.69,12.82c11.52,8.89,22.64,18.28,33.97,27.4c10.72,9.81,21.68,19.38,32.18,29.41
							l15.39,15.4c5.13,5.14,10.32,10.21,15.1,15.67c39.54,42.47,74.58,88.8,105.66,137.47c3.95,6.04,7.55,12.3,11.35,18.44
							c3.69,6.2,7.63,12.25,11.11,18.57c7.08,12.56,14.36,25.02,20.93,37.84c13.65,25.4,26.02,51.44,37.71,77.75
							c11.7,26.31,22.38,53.07,32.08,80.19c4.87,13.55,9.45,27.21,13.86,40.94l6.34,20.67l3.02,10.34l1.46,5.04l0.71,2.47
							c0.02-0.02-0.31-0.81-0.66-1.07l1.01,2.18c-0.11-0.5-0.27-0.99-0.48-1.45c-0.11-0.23-0.23-0.45-0.36-0.67l-0.19-0.3l0.16,0.24
							l1.26,1.88c0.83,1.25,1.7,2.51,2.46,3.75c1.55,2.49,3.18,4.97,4.67,7.48c2.99,5,5.95,10.02,8.67,15.12
							c2.86,5.04,5.44,10.21,8.03,15.38c2.68,5.12,4.99,10.41,7.4,15.65c9.37,21.07,17.53,42.7,23.64,65.01
							c12.42,44.5,17.56,91.38,14.1,137.89c-0.41,5.81-1.38,11.58-2.05,17.36c-0.81,5.77-1.35,11.58-2.41,17.33l-3.55,17.22
							c-1.37,5.68-3.02,11.29-4.53,16.93c-6.6,22.39-15.3,44.01-25.53,64.74c-10.46,20.61-22.47,40.27-35.5,59.11
							c-13.1,18.8-27.55,36.49-42.56,53.6c-15.2,16.93-31.2,33.04-47.78,48.47c-16.78,15.19-33.84,30.07-51.75,43.8
							c-35.48,27.93-73.22,52.65-112.02,75.34C1578.62,1625.05,1493.65,1658.11,1405.14,1671.65"/>
					</g>
					<g>
						<path class="st11" d="M586.93,463.58c8.96-68.19-127-26.67-129.63-86.19c-1.91-43.28,142.9-158.89,291.63-76.43
							c0,0-6.26-32.95-21.2-74.52c-17.91-49.82-23.74-93.25-3.67-105.23c40.66-24.26,138.04,48.38,310.78,96.83
							c66.81,18.74,191.41,39.07,247.34,41.65L963.26,627.96L586.93,463.58z"/>
					</g>
					<g class="st14">
						<g>
							<g>
								<path class="st11" d="M482.3,407.35c29.62-50.07,155.92-127.96,285.15-56.32c0,0-6.29-32.92-21.23-74.51
									c-17.89-49.83-23.71-93.25-3.67-105.23c40.68-24.27,138.08,48.38,310.81,96.84c48.97,13.71,129,28.34,190.27,36.13
									l38.57-44.57c-55.93-2.59-180.53-22.94-247.33-41.65c-172.76-48.45-270.12-121.11-310.8-96.84
									c-20.07,11.99-14.25,55.41,3.67,105.22c14.95,41.59,21.2,74.53,21.2,74.53c-148.7-82.47-293.54,33.16-291.62,76.41
									C458,393.16,468.07,401.81,482.3,407.35"/>
							</g>
						</g>
					</g>
					<g>
						<path class="st3" d="M578.72,462.5c-0.43-4.6-1.32-8.72-3.01-11.73c-1.61-3.06-3.76-5.05-6.59-6.91
							c-2.84-1.82-6.54-3.28-10.64-4.59c-4.15-1.26-8.73-2.14-13.5-3.06c-9.57-1.7-19.92-2.74-30.62-4.36
							c-10.75-1.6-21.87-3.42-33.83-7.2c-5.96-1.94-12.2-4.44-18.49-8.48c-6.22-3.99-12.66-9.95-16.74-17.77
							c-2.05-3.84-3.52-7.97-4.39-12.03c-0.78-4.21-1.3-7.46-1.02-12.78c0.32-4.73,1.35-8.68,2.57-12.28
							c1.22-3.62,2.68-6.85,4.26-9.85c6.35-11.97,14.33-21.06,22.68-29.54c8.4-8.39,17.43-15.75,26.85-22.44
							c18.84-13.38,39.47-23.79,61.1-31.49c21.62-7.72,44.4-12.43,67.46-13.76c46.16-2.87,93.04,9.14,132.16,32.24l0.01,0
							l-24.31,17.58c-1.42-7.08-3.29-14.91-5.22-22.36c-1.95-7.53-4.07-15.04-6.33-22.5c-2.24-7.47-4.69-14.87-7.24-22.22
							l-4.01-11.43c-1.36-3.93-2.64-7.91-3.89-11.91c-4.87-16.06-9.1-32.48-10.67-50.5c-0.68-9.04-0.89-18.51,1.67-29.24
							c1.35-5.33,3.48-11.12,7.5-16.7c2.03-2.77,4.51-5.41,7.4-7.66c1.4-1.06,3.09-2.21,4.43-2.95c1.35-0.77,2.72-1.49,4.13-2.1
							c11.4-5.03,22.55-5.11,32-4.22c9.59,0.98,18.23,3.08,26.51,5.47c16.52,4.85,31.74,10.91,46.81,17
							c30.02,12.31,59.19,25.04,88.76,36.72c29.52,11.73,59.28,22.55,89.43,32.08c15.02,4.73,30.34,9.32,45.37,13.24
							c15.15,3.92,30.56,7.45,46.06,10.71c31.03,6.46,62.36,12.11,93.77,16.9c15.7,2.44,31.42,4.58,47.11,6.49
							c15.67,1.89,31.43,3.53,46.69,4.28l0.1,0.01c9.14,0.45,16.18,8.22,15.73,17.36c-0.45,9.14-8.22,16.18-17.36,15.73h0
							c-16.78-0.83-32.94-2.54-49.1-4.48c-16.14-1.96-32.19-4.15-48.18-6.63c-32-4.88-63.81-10.61-95.57-17.22
							c-15.88-3.35-31.74-6.97-47.63-11.09c-16-4.18-31.41-8.81-46.97-13.71c-31.02-9.8-61.57-20.91-91.65-32.87
							c-30.09-11.89-59.72-24.8-89.04-36.83c-14.64-5.93-29.29-11.69-43.56-15.87c-7.11-2.07-14.13-3.69-20.52-4.32
							c-6.4-0.68-11.86-0.09-15.2,1.47c-0.44,0.18-0.84,0.4-1.23,0.62c-0.41,0.23-0.36,0.25-0.58,0.37
							c-0.27,0.23-0.56,0.53-0.92,0.98c-0.69,0.94-1.53,2.76-2.13,5.17c-1.24,4.9-1.4,11.7-0.81,18.6
							c1.17,13.96,4.84,28.84,9.3,43.41c1.14,3.66,2.32,7.31,3.57,10.95l3.95,11.26c2.71,7.79,5.29,15.63,7.67,23.51
							c2.39,7.89,4.62,15.82,6.69,23.8c2.08,8.08,3.97,15.84,5.69,24.48c1.78,8.93-4.01,17.61-12.94,19.4
							c-3.88,0.77-7.7,0.12-10.94-1.6l-0.43-0.22l-0.01,0c-17.7-9.17-36.29-16.21-55.44-20.45c-19.15-4.27-38.83-5.5-58.34-4.25
							c-19.52,1.37-38.9,5.49-57.49,11.99c-18.57,6.55-36.35,15.59-52.5,26.61c-8.04,5.53-15.68,11.62-22.47,18.21
							c-6.74,6.52-12.86,13.8-16.66,20.63c-1.92,3.3-3.06,6.72-3.16,8.03c-0.1,0,0.02,2.09,0.19,3.12c0.22,1.17,0.54,2.11,0.94,2.99
							c0.78,1.72,2.27,3.43,4.91,5.29c2.64,1.83,6.29,3.56,10.42,5.01c8.31,2.97,18.28,4.85,28.53,6.86
							c10.33,1.95,21.1,4.08,32.27,7.38c5.6,1.59,11.27,3.73,17.01,6.48c5.73,2.77,11.58,6.4,16.72,11.71
							c5.23,5.13,9.13,12.42,10.49,19.61c1.39,7.26,0.52,14.03-1.19,19.98c-1.28,4.44-5.91,7-10.35,5.72
							c-3.4-0.98-5.7-3.93-6.01-7.25L578.72,462.5z"/>
					</g>
					<g>
						<path class="st9" d="M1474.02,1210.08c-46.61-2.38-153.27-23.22-205.34-166.15c-52.13-143.1,0.29-221.94,97.51-253.49
							c97.22-31.55,243.57-12.49,347.7,63.4c81.13,59.13,125.75,167.38,101.46,227.33
							C1770.67,1191.4,1519.15,1212.39,1474.02,1210.08"/>
					</g>
					<g>
						<path class="st9" d="M878.54,1388.64c37.61-27.63,115.2-103.73,80.04-251.73c-35.2-148.18-122.36-185.17-220.9-158.02
							c-98.54,27.16-210.26,123.59-255.45,244.25c-35.21,94.01-12.91,208.96,40.37,245.65
							C620.56,1536.27,842.12,1415.4,878.54,1388.64"/>
					</g>
					<g>
						<path class="st3" d="M664.43,1253.38c20.87,69.6,94.2,109.1,163.8,88.23c69.59-20.87,109.1-94.2,88.22-163.8
							c-20.87-69.6-94.2-109.1-163.8-88.23C683.07,1110.45,643.57,1183.79,664.43,1253.38"/>
					</g>
					<g>
						<path class="st11" d="M865.81,1167.8c11.16,28.52,1.8,59.42-20.92,69.01c-22.71,9.59-50.17-5.76-61.34-34.28
							c-11.16-28.52-1.8-59.42,20.92-69.01C827.18,1123.93,854.64,1139.28,865.81,1167.8"/>
					</g>
					<g class="st15">
						<path class="st11" d="M782.09,1254.19c17.59,14.24,22.86,37.51,11.77,51.96c-11.09,14.45-34.33,14.62-51.92,0.38
							c-17.59-14.24-22.86-37.51-11.77-51.96C741.26,1240.12,764.5,1239.95,782.09,1254.19"/>
					</g>
					<g>
						<path class="st3" d="M1585.34,988.89c15.58,70.97-29.33,141.12-100.3,156.71c-70.97,15.57-141.13-29.33-156.7-100.3
							c-15.58-70.97,29.33-141.13,100.29-156.7C1499.61,873.01,1569.77,917.92,1585.34,988.89"/>
					</g>
					<g>
						<path class="st11" d="M1367.76,1011.92c4.1,30.35,27.3,52.81,51.81,50.15c24.51-2.66,41.05-29.41,36.95-59.77
							c-4.1-30.35-27.3-52.81-51.81-50.15C1380.2,954.82,1363.65,981.57,1367.76,1011.92"/>
					</g>
					<g class="st15">
						<path class="st11" d="M1482.9,1046.76c-8.45,20.99-1.75,43.89,14.96,51.13c16.71,7.25,37.11-3.9,45.56-24.89
							c8.45-20.99,1.75-43.89-14.96-51.13C1511.75,1014.63,1491.35,1025.77,1482.9,1046.76"/>
					</g>
					<g>
						<path class="st3" d="M1412.31,589.04c1.41-13.54-112.31-104-179.04-34c-20.1,21.08-12.47,65.21,25.2,73.32
							C1330.62,643.88,1410.89,602.59,1412.31,589.04"/>
					</g>
					<g>
						<path class="st3" d="M591.07,835.29c-8.63-10.53,36.56-148.64,130.79-126.91c28.39,6.55,46.29,47.59,19.29,75.09
							C689.45,836.14,599.7,845.82,591.07,835.29"/>
					</g>
					<g>
						<polygon class="st16" points="1160.3,1271.51 1162.15,1271.26 1161.98,1270.7 						"/>
					</g>
					<g>
						<polygon class="st16" points="1158.49,1271.75 1158.66,1272.31 1160.3,1271.51 						"/>
					</g>
					<g>
						<path class="st11" d="M1007.77,1279.83c11.43,8.21,35.59,41.46,69.84,48.77c39.69,8.47,71.92-18.37,82.46-45.87
							c4.56-11.87,3.12-27.01,0.65-35.26l-7.97-26.58l7.97,26.58c2.47,8.25,9.6,21.68,19.94,29.09
							c23.94,17.16,65.61,21.84,94.09-7.07c24.58-24.95,26.46-66.01,31.49-79.15c0,0-79.59-85.74-179.43-55.8
							C1026.98,1164.48,1007.77,1279.83,1007.77,1279.83"/>
					</g>
					<g class="st0">
						<path class="st3" d="M1122.86,1221.86c0,0,18.93,50.14-9.86,68.77c-38.87,25.16-87.19-21.79-87.19-21.79
							s71.56,10.31,60.2-41.13C1088.32,1193.54,1122.86,1221.86,1122.86,1221.86"/>
					</g>
					<g class="st0">
						<path class="st3" d="M1178.14,1205.29c0,0,11.78,52.28,46.07,52c46.31-0.38,60.82-66.17,60.82-66.17s-54.07,47.98-72.9-1.23
							C1191.39,1162.63,1178.14,1205.29,1178.14,1205.29"/>
					</g>
					<g>
						<path class="st3" d="M1007.77,1279.83c5.24,1.89,9.92,4.96,14.54,7.72l13.39,8.46c8.78,5.43,17.4,10.42,26.03,13.87
							c8.69,3.52,16.92,5.55,25.43,5.81c8.4,0.27,16.59-1.14,24.16-4.41c7.59-3.16,14.4-8.33,20.16-14.34
							c5.82-5.96,10.08-13.51,12.73-20.56c1.87-5.33,1.91-14.4,0.25-21.58c-0.2-0.9-0.39-1.61-0.64-2.41l-1.15-3.77l-2.31-7.54
							l-4.61-15.1l33.97-10.18l4.44,15.14l2.22,7.57l1.11,3.79c0.25,0.81,0.48,1.5,0.8,2.36c2.53,6.93,7.58,14.47,12.07,17.91
							c6.08,4.47,13.81,8.4,21.95,10.19c8.13,1.84,16.67,2.45,24.76,0.89c8.13-1.45,15.74-4.78,22.64-9.61
							c7.01-4.87,12.76-11.14,18.11-18.85c5.33-7.64,9.78-16.57,14.1-25.95l6.48-14.45c2.32-4.85,4.51-9.99,7.81-14.46
							c-0.17,5.47,0.17,10.73,0.27,16.15c0.1,5.39-0.05,10.84-0.47,16.33c-0.9,10.97-2.98,22.21-7.51,33.19
							c-2.1,5.54-5.16,10.84-8.57,16.01c-1.77,2.55-3.82,4.97-5.83,7.38c-2.18,2.23-4.3,4.56-6.7,6.61
							c-9.5,8.37-21.34,14.3-33.74,17.45c-12.44,3.24-25.41,3.33-37.87,1.11c-3.14-0.46-6.18-1.4-9.28-2.12
							c-3.01-1.04-6.1-1.83-9.04-3.16c-6.02-2.29-11.65-5.47-17.27-9.29c-6.25-4.53-10.95-9.74-14.88-15.13
							c-3.92-5.45-7.11-11.01-9.71-17.4c-0.63-1.58-1.26-3.38-1.79-5.09l-1.15-3.77l-2.31-7.54l-4.62-15.09
							c-2.87-9.36,2.39-19.28,11.76-22.15c9.36-2.87,19.28,2.4,22.15,11.76c0.01,0.03,0.05,0.17,0.06,0.21l4.46,15.13l2.22,7.57
							l1.11,3.79c0.5,1.71,0.96,3.56,1.3,5.23c1.4,6.76,1.75,13.17,1.49,19.88c-0.31,6.67-1.37,13.61-4.1,20.83
							c-2.6,6.28-5.52,12.06-9.3,17.27c-1.73,2.72-3.87,5.09-5.82,7.62c-2.19,2.31-4.21,4.77-6.58,6.88
							c-9.19,8.71-20.07,15.81-32.25,19.94c-12.09,4.2-25.26,5.75-37.81,4.02c-3.12-0.43-6.2-1.12-9.24-1.8
							c-3.01-0.9-6.06-1.82-8.94-2.95c-2.83-1.25-5.72-2.42-8.33-3.95l-3.96-2.2l-3.71-2.5c-9.84-6.66-17.78-14.93-24.55-23.61
							c-3.35-4.38-6.49-8.85-9.34-13.43C1013.48,1288.93,1010.9,1284.34,1007.77,1279.83"/>
					</g>
					<g>
						<path class="st3" d="M1054.59,1198.77c29.54,40.14,105.95,44.86,105.95,44.86s61.21-45.98,63.79-95.76
							c1.82-35.6-80.72-16.57-96.09-11.96C1112.87,1140.52,1033.48,1170.04,1054.59,1198.77"/>
					</g>
					<g class="st17">
						<g>
							<g>
								<path class="st11" d="M1096.6,1161.48c10.06,9.36,38.53,0.6,38.53,0.6s28.59-8.35,31.84-21.7
									c2.32-9.55-31.64-0.81-38.02,1.11C1122.57,1143.39,1089.41,1154.78,1096.6,1161.48"/>
							</g>
						</g>
					</g>
					<g>
						<path class="st2" d="M1166.62,2958.6c163.9,78.51,337.41,57.42,387.51-47.16c0,0,24.17-79.8,53.12-142.29
							c36.23-78.21,88.55-153.44,113.48-205.48c50.1-104.58-42.21-253.01-206.11-331.52c-163.9-78.51-337.41-57.42-387.51,47.16
							c-24.94,52.05-50.77,139.97-89,217.21c-30.55,61.72-77.6,130.57-77.6,130.57C910.41,2731.66,1002.72,2880.09,1166.62,2958.6"
							/>
					</g>
					<g>
						<path class="st6" d="M1608.34,2655.76c14.63-24.95-110.41,15.15-231.5-75.08c-60.41-45.01-32.69,116.68-66.25,172.66
							c-45.49,75.85-157.82,135.44-105.71,169.16c52.11,33.72,261.94,61.84,298.47-29.4
							C1538.06,2806.41,1555.24,2746.32,1608.34,2655.76"/>
					</g>
					<g>
						<path class="st3" d="M1362.51,3026.08c-65.77,0-136.89-17.04-204.54-49.44l0,0c-82.67-39.6-150.72-97.65-191.64-163.46
							c-42.67-68.62-51.14-137.78-23.86-194.74l1.52-2.64c0.46-0.68,46.63-68.45,76.19-128.16c21.22-42.87,38.82-89.84,54.35-131.28
							c12.01-32.07,23.36-62.35,34.55-85.7c27.28-56.96,86.48-93.7,166.7-103.45c76.93-9.36,164.81,7.3,247.49,46.9
							c82.67,39.6,150.73,97.65,191.65,163.46c42.67,68.62,51.14,137.78,23.86,194.74c-11.18,23.34-27.67,51.15-45.11,80.59
							c-22.57,38.08-48.15,81.24-68.26,124.66c-28.01,60.45-51.89,138.9-52.13,139.69l-1.1,2.84
							c-27.28,56.96-86.48,93.7-166.7,103.45C1391.48,3025.24,1377.12,3026.08,1362.51,3026.08z M1175.26,2940.56
							c75.88,36.35,155.91,51.71,225.38,43.27c65.52-7.97,113.33-36.26,134.82-79.73c3.62-11.79,26.31-84.37,53.65-143.36
							c20.96-45.25,47.08-89.34,70.14-128.23c16.98-28.66,33.03-55.73,43.45-77.48c45.24-94.45-43-231.21-196.71-304.84
							c-75.87-36.35-155.9-51.72-225.37-43.26c-66.18,8.05-114.28,36.83-135.45,81.03c-10.42,21.76-21.47,51.24-33.16,82.46
							c-15.86,42.33-33.83,90.31-55.95,134.99c-28.84,58.26-71.19,121.44-78.1,131.65
							C934.13,2731.43,1022.27,2867.26,1175.26,2940.56L1175.26,2940.56z"/>
					</g>
					<g>
						<path class="st2" d="M1374.1,2525.48c208.61,99.73,329.34,74.27,346.63,38.17c17.98-37.53,82.39-219.29,125.39-329.15
							c72.55-185.39,227.21-406.89,263.58-482.83c4.03-113.35-8.29-324.47-171.36-404.07c-164.22-77.19-336.45,45.52-422.26,119.7
							c-36.38,75.94-112.05,335.26-211.06,507.99c-58.66,102.35-159.94,266.46-177.91,303.99
							C1109.82,2315.38,1165.65,2425.42,1374.1,2525.48"/>
					</g>
					<g>
						<path class="st2" d="M1374.1,2525.49c208.62,99.73,329.36,74.26,346.65,38.15c17.95-37.53,82.38-219.31,125.36-329.16
							c72.55-185.39,227.2-406.86,263.6-482.82c4.02-113.35-8.31-324.48-171.37-404.06c-164.24-77.17-336.45,45.53-422.28,119.71
							c-18.01,37.63-45.68,120.23-81.03,215.04c-36.04,96.56-80.05,205.77-130.01,292.93c-13.06,22.77-28.21,48.59-44.08,75.41
							c-55.53,93.68-119.88,199.41-133.84,228.61C1109.82,2315.4,1165.65,2425.43,1374.1,2525.49"/>
					</g>
					<g>
						<path class="st2" d="M2109.71,1751.67c-36.36,75.95-191.05,297.44-263.6,482.81c-42.99,109.87-107.39,291.64-125.36,329.16
							c-17.27,36.11-138.03,61.58-346.63-38.14c-87.02-41.75-147.44-85.23-187.03-124.37c-55.33-54.67-70.07-100.8-59.97-121.84
							c13.96-29.19,78.31-134.93,133.85-228.61c7.25-12.26,14.37-24.31,21.16-35.94c8.12-13.83,15.82-27.09,22.9-39.47
							c49.95-87.14,93.97-196.34,130-292.92c35.37-94.8,63.03-177.42,81.04-215.02c85.81-74.21,258.06-196.88,422.26-119.72
							C2101.42,1427.19,2113.72,1638.32,2109.71,1751.67"/>
					</g>
					<g>
						<path class="st6" d="M1352.65,2232.33c-16.81,97.77-72.1,163.37-165.57,168.8c-55.33-54.67-70.07-100.8-59.97-121.84
							c13.96-29.2,78.31-134.93,133.85-228.61c7.25-12.26,14.37-24.31,21.17-35.95C1345.49,2052.09,1369.47,2134.39,1352.65,2232.33
							"/>
					</g>
					<g class="st17">
						<g>
							<g>
								<path class="st11" d="M1463.96,2025.66c62.83-132.57,120.82-134.01,106.95-195.02c-7.96-35.01-66.88-50.17-96.37-137.58
									c-9.88-29.29-65.98,203.82-130.26,285.71C1320.56,2008.99,1420.99,2116.33,1463.96,2025.66"/>
							</g>
						</g>
					</g>
					<g class="st17">
						<g>
							<g>
								<path class="st11" d="M984.22,2704.76c13.01,59.54,57.56,109.24,92.3,97.9c41.71-13.62,10.78-46.03,75.66-177.6
									c18.47-37.45,82.05-90.06,69-131.54c-10.78-34.25-51.41-34.58-87.84-98.41c-23.78-41.67-36.09,84.1-63.92,156.91
									C1032.31,2649.14,972.22,2649.8,984.22,2704.76"/>
							</g>
						</g>
					</g>
					<g>
						<path class="st6" d="M1942.75,1892.12c-53.4,9.21-145.59,6.59-219.75-42.54c-87.64-58.05-69.7,156.81-109.93,271.42
							c-57.49,163.76-238.78,299.49-231.14,333.56c9.06,40.39,247.12,126.01,294.28,64.73c47.15-61.28,93.03-267.84,164.2-402.59
							C1904.89,1994.61,1996.15,1882.92,1942.75,1892.12"/>
					</g>
					<g>
						<path class="st3" d="M1627.1,2615.83c-63.33,0-151.5-19.66-261.63-72.31l-0.02-0.01
							c-217.08-104.19-280.6-222.29-256.37-272.87c10.71-22.35,47.58-84.11,90.27-155.62c31.17-52.21,63.4-106.19,88.32-149.67
							c65.41-114.1,120.77-267.27,161.2-379.11c20.51-56.74,36.71-101.56,49.17-127.58l1.8-3.76l3.15-2.73
							c113.25-97.91,282.18-198.66,443.85-122.68c160.82,78.5,188.16,273.28,182.83,422.88l-0.15,4.16l-1.8,3.76
							c-12.46,26.02-37.24,66.74-68.6,118.29c-61.81,101.59-146.46,240.73-194.39,363.18c-18.26,46.66-40.12,105.6-61.27,162.6
							c-28.97,78.1-53.99,145.54-64.7,167.9C1726.82,2597.22,1688.7,2615.83,1627.1,2615.83z M1382.73,2507.43
							c209.16,99.99,311.26,65.73,319.97,47.57c9.92-20.71,35.83-90.57,63.28-164.53c21.21-57.17,43.13-116.28,61.52-163.27
							c49.19-125.7,134.89-266.55,197.46-369.4c28.12-46.21,52.59-86.43,64.9-111.08c4.27-137.16-20.47-312.91-160.28-381.15
							c-140.53-66.05-292.98,24.81-397.2,114.1c-11.49,25.04-27.5,69.31-45.88,120.17c-40.92,113.22-96.97,268.28-164.11,385.4
							c-25.1,43.79-57.42,97.93-88.68,150.29c-40.43,67.72-78.63,131.69-88.54,152.4
							C1136.45,2306.08,1173.76,2407.13,1382.73,2507.43L1382.73,2507.43z"/>
					</g>
					<g>
						<path class="st2" d="M1722.19,1798.82c163.9,78.51,337.41,57.42,387.51-47.16c0,0,24.17-79.81,53.12-142.3
							c36.23-78.21,88.55-153.43,113.48-205.48c50.1-104.58-42.21-253.01-206.11-331.52c-163.9-78.51-337.41-57.42-387.51,47.16
							c-24.94,52.05-50.77,139.97-89,217.21c-30.56,61.72-77.6,130.57-77.6,130.57C1465.99,1571.89,1558.29,1720.31,1722.19,1798.82
							"/>
					</g>
					<g class="st17">
						<g>
							<g>
								<path class="st11" d="M1533.77,1542.5c4.55,54.45,55.35,93.74,71.86,86.83c31.52-13.18,12.61-82.43,68.25-148.11
									c27-31.86,81.93-53.13,68.88-94.61c-10.78-34.25-46.98-35.07-77.3-116.13c-16.81-44.93-26.99,69.6-66.69,148.41
									C1582.33,1451.54,1529.08,1486.45,1533.77,1542.5"/>
							</g>
						</g>
					</g>
					<g>
						<path class="st6" d="M2175.02,1514.48c-87.55,107.59-89.69,217.95-113.65,237.9c-59.57,49.59-237.37,42.01-325.16-25.77
							c-68.51-52.9,88.05-72.49,93.43-210.44C1833.65,1413.13,1928.07,1599.36,2175.02,1514.48"/>
					</g>
					<g>
						<path class="st18" d="M1888.81,1451c163.92,78.52,337.41,57.42,387.5-47.14c50.09-104.56-42.19-252.98-206.11-331.5
							c-163.92-78.53-337.41-57.42-387.5,47.14C1632.61,1224.06,1724.89,1372.48,1888.81,1451"/>
					</g>
					<g>
						<path class="st18" d="M2217.25,1429.89c13.93-11.46,24.74-25.09,32.13-40.51c20.73-43.27,13.2-97.58-21.21-152.93
							c-36.03-57.95-96.62-109.39-170.61-144.83c-120.62-57.79-252.25-59.17-320.11-3.38c-13.94,11.46-24.75,25.08-32.13,40.51
							c-20.73,43.27-13.2,97.59,21.21,152.92c36.03,57.96,96.62,109.39,170.61,144.83
							C2017.77,1484.3,2149.4,1485.69,2217.25,1429.89"/>
					</g>
					<g>
						<path class="st19" d="M1876.87,1416.23c6.63,3.55,13.39,6.96,20.27,10.27c120.63,57.78,252.27,59.19,320.11,3.4
							c13.94-11.47,24.75-25.11,32.15-40.49c20.74-43.29,13.19-97.62-21.21-152.94c-17.37-27.94-40.44-54.36-68.03-78.21
							c18.07,18.36,33.68,37.94,46.34,58.28c35.31,56.8,43.05,112.51,21.77,156.94c-7.57,15.83-18.66,29.8-32.96,41.55
							C2127.56,1470.72,1997.83,1470.87,1876.87,1416.23"/>
					</g>
					<g>
						<path class="st3" d="M1918.08,1866.3c-65.76,0-136.89-17.04-204.53-49.44c-82.67-39.6-150.72-97.65-191.64-163.46
							c-42.67-68.62-51.14-137.78-23.86-194.74l1.52-2.64c0.46-0.68,46.64-68.46,76.19-128.16c21.22-42.86,38.81-89.83,54.34-131.27
							c12.02-32.07,23.36-62.36,34.55-85.71c27.29-56.95,86.48-93.69,166.7-103.45c76.93-9.36,164.81,7.3,247.49,46.9
							c82.66,39.6,150.72,97.65,191.64,163.46c42.67,68.62,51.14,137.78,23.86,194.73c-11.19,23.35-27.67,51.16-45.12,80.62
							c-22.56,38.08-48.14,81.23-68.25,124.64c-28.01,60.45-51.89,138.91-52.13,139.69l-1.1,2.84
							c-27.28,56.95-86.48,93.69-166.7,103.45C1947.05,1865.46,1932.69,1866.3,1918.08,1866.3z M1533.5,1477.25
							c-43.8,94.41,44.33,230.24,197.33,303.54c75.87,36.35,155.91,51.69,225.37,43.26c65.53-7.97,113.34-36.26,134.82-79.73
							c3.62-11.79,26.31-84.38,53.65-143.37c20.96-45.24,47.08-89.32,70.13-128.22c16.99-28.67,33.04-55.75,43.46-77.5
							c21.17-44.2,13.45-99.72-21.75-156.33c-36.94-59.42-99.08-112.16-174.96-148.51c-153.71-73.63-315.58-56.69-360.83,37.76
							c-10.42,21.76-21.47,51.25-33.16,82.46c-15.86,42.33-33.83,90.31-55.95,134.98
							C1582.76,1403.87,1540.42,1467.04,1533.5,1477.25z"/>
					</g>
					<g>
						<path class="st3" d="M1747.51,1349.38c22.6,16.59,44.81,32.32,67.81,46.69c22.92,14.43,46.42,27.6,70.49,39.69
							c24.08,12.08,48.7,23.03,73.96,32.85c25.26,9.9,51.1,18.45,77.82,26.99c-28.05,1.74-56.27-1.77-83.66-8.34
							c-27.4-6.67-54.05-16.59-79.26-29.29c-25.23-12.7-49.12-28.12-70.81-46.16C1782.25,1393.71,1762.64,1373.06,1747.51,1349.38"
							/>
					</g>
					<g>
						<path class="st3" d="M2142.98,1493.4c11.16-5.52,22-10.64,32.36-16.21c10.39-5.5,20.19-11.58,29.45-17.96
							c9.23-6.44,17.82-13.37,25.62-20.86c7.72-7.58,14.64-15.68,20.5-24.43c11.75-17.51,18.48-37.83,20.1-58.77
							c1.86-20.98-1.76-42.55-8.27-63.41c-6.91-20.81-16.79-41.03-29.13-59.93c-12.16-19.01-26.7-36.75-42.58-53.26
							c-15.88-16.55-33.4-31.67-51.97-45.41c-18.55-13.79-38.24-26.14-58.74-37c-40.93-21.91-85.22-37.6-130.53-46.09
							c-22.65-4.27-45.58-6.63-68.38-6.78c-11.41-0.18-22.74,0.36-34.01,1.26c-5.6,0.65-11.24,1.08-16.77,2.04
							c-5.59,0.7-11.08,1.76-16.57,2.81c-21.82,4.59-42.98,11.6-61.84,22.17c-9.34,5.38-18.29,11.31-26.33,18.28
							c-8.05,6.95-14.93,15.01-21.1,23.58c-12.36,17.2-20.42,37.51-24.21,59.51c-3.82,22.07-3.17,45.6-0.37,69.98
							c-12.99-20.83-20.91-45.39-22.11-71.27c-1.09-25.81,5.37-52.9,19.37-75.82c6.85-11.54,15.44-22.02,25.02-31.33
							c9.68-9.18,20.26-17.33,31.57-24.12c22.65-13.53,47.4-22.35,72.46-27.49c25.08-5.21,50.53-6.89,75.65-6.06
							c25.15,0.78,50.02,4,74.36,9.2c48.74,10.27,95.48,27.76,139.31,50.64c43.7,23.12,84.93,51.59,120.5,86.84
							c17.7,17.65,34.27,36.73,48.27,57.92c7.15,10.47,13.43,21.61,19.28,33.01c5.81,11.44,10.52,23.52,14.62,35.84
							c3.9,12.42,6.9,25.26,8.47,38.4c1.68,13.13,1.66,26.61,0.29,39.98c-2.54,26.84-13.07,53.02-28.95,74.64
							c-7.94,10.85-17.37,20.52-27.86,28.55c-10.49,8.03-21.93,14.47-33.78,19.42C2193.01,1491.23,2167.68,1495.24,2142.98,1493.4"
							/>
					</g>
					<g>
						<path class="st18" d="M1917.73,1372.14c101.57,48.65,204.84,53.35,256.69,16.73c11.59-8.16,20.6-18.36,26.48-30.63
							c32.18-67.17-42.43-169.88-166.63-229.37c-124.2-59.49-250.96-53.25-283.14,13.92c-5.88,12.27-8.17,25.68-7.31,39.81
							C1747.81,1245.97,1816.16,1323.49,1917.73,1372.14"/>
					</g>
					<g>
						<path class="st18" d="M1917.73,1372.13c101.55,48.67,204.84,53.34,256.68,16.75c11.58-8.19,20.59-18.36,26.48-30.64
							c32.17-67.19-42.43-169.9-166.61-229.36c-1.22-0.58-2.47-1.19-3.72-1.75c-123.01-57.61-247.59-50.86-279.43,15.67
							c-4.3,9.03-6.71,18.69-7.34,28.81c-0.22,3.59-0.22,7.26,0.02,10.97C1747.81,1245.98,1816.15,1323.49,1917.73,1372.13"/>
					</g>
					<g>
						<path class="st19" d="M1917.73,1372.13c101.55,48.67,204.84,53.34,256.68,16.75c11.58-8.19,20.59-18.36,26.48-30.64
							c32.17-67.19-42.43-169.9-166.61-229.36c-1.22-0.58-2.47-1.19-3.72-1.75c116.22,92.61,49.75,183.51,13.21,199.82
							c-113.85,50.81-250.96-66.59-299.98-155.34c-0.22,3.59-0.22,7.26,0.02,10.97C1747.81,1245.98,1816.15,1323.49,1917.73,1372.13
							"/>
					</g>
					<g>
						<path class="st3" d="M2081.38,1432.95c-52.43,0-113.13-14.43-172.29-42.77c-106.22-50.88-180.65-133.8-185.22-206.32
							c-1.09-17.92,2.01-34.62,9.23-49.7c37.51-78.32,173.6-88.57,309.81-23.32c136.23,65.26,213.55,177.73,176.03,256.05
							c-7.24,15.11-18.34,28.01-33,38.34C2159.64,1423.79,2123.13,1432.95,2081.38,1432.95z M1869.68,1107.94
							c-48.79,0-86.66,14.58-100.51,43.49c-4.24,8.86-6.05,18.94-5.38,29.95c3.63,57.57,70.48,128.61,162.58,172.73l0,0
							c92.14,44.14,189.38,51.71,236.51,18.43c9.01-6.35,15.73-14.06,19.98-22.93c26.9-56.15-45.1-148.97-157.23-202.69
							C1971.25,1120.86,1915.62,1107.94,1869.68,1107.94z"/>
					</g>
					<g>
						<path class="st3" d="M2000.53,1199.29c-20.77-8.27-41.97-15.15-63.47-20.36c-21.49-5.22-43.31-8.72-65.07-9.93
							c-21.73-1.23-43.46-0.32-64.1,3.7c-20.53,4.1-39.94,11.87-54.51,23.42l6.97-14.57c1.54,18.48,8.86,37.52,19.48,55
							c10.74,17.5,24.38,33.69,39.52,48.47c30.36,29.67,66.96,53.3,105.53,72.17c38.88,18.23,80.22,31.93,122.37,37
							c21.01,2.54,42.18,3.02,62.54,0.43c20.27-2.68,39.7-8.91,55.06-19.29l0.54-0.36c7.58-5.12,17.87-3.13,22.99,4.44
							c5.13,7.58,3.16,17.86-4.42,22.98c-21.68,14.71-46.04,21.86-69.84,25.08c-23.91,3.04-47.66,2.41-70.89-0.39
							c-46.54-5.64-90.92-20.44-132.67-40.01c-41.42-20.27-80.77-45.58-114.32-78.31c-16.74-16.35-32.11-34.47-44.73-55
							c-12.4-20.56-22.1-44.02-24.24-70.13l-0.8-9.87l7.78-4.69c22.47-13.57,46.85-19.18,70.38-21c23.64-1.62,46.84,0.39,69.35,4.49
							c22.54,4.09,44.4,10.47,65.5,18.45C1960.6,1178.99,1980.96,1188.53,2000.53,1199.29"/>
					</g>
					<g>
						<path class="st9" d="M1143.99,2017.68c68.76-48.81,187.59-12.45,188.38,100.87c0.67,96.08-51.73,259.8-196.26,256.08
							C979.8,2370.62,1045.05,2087.92,1143.99,2017.68"/>
					</g>
					<g>
						<path class="st7" d="M1332.36,2118.56c0.7,96.08-51.73,259.79-196.27,256.06c-51.14-1.32-78.56-32.47-88.87-76.28
							c13.88,10.64,31.76,16.98,54.22,17.56c144.54,3.73,196.97-160.02,196.26-256.1c-0.09-11.89-1.45-22.94-3.98-33.13
							C1316.62,2047.17,1332.07,2077.9,1332.36,2118.56"/>
					</g>
					<g>
						<path class="st3" d="M1141.02,2394.7c-1.8,0-3.6-0.02-5.42-0.07c-52.16-1.34-89.45-30.19-105.01-81.23
							c-29.19-95.79,23.14-256.17,101.82-312.03c41.72-29.61,99.07-33.19,146.11-9.11c46.53,23.83,73.45,69.81,73.85,126.15
							c0.49,70.11-25.23,166.58-83.8,224.06C1233.25,2377.14,1190.35,2394.69,1141.02,2394.7z M1212.62,2016.55
							c-20.52,0-40.78,5.89-57.05,17.44l0,0c-63.37,44.99-110.37,190.12-86.71,267.75c10.57,34.7,32.74,52,67.77,52.9
							c40.47,1.05,75.34-12.66,103.92-40.72c50.21-49.28,72.26-133.57,71.82-195.23c-0.39-56.03-32.8-80.95-52.08-90.83
							C1245.49,2020.28,1228.97,2016.55,1212.62,2016.55z M1143.99,2017.68h0.05H1143.99z"/>
					</g>
					<g>
						<path class="st3" d="M1187.82,2075.71c15.11-0.23,30.32,1.06,45.45,3.52c15.13,2.52,30.24,6.33,44.93,12.4
							c14.67,5.98,29,14.46,41.23,26.53c6.04,6.09,11.46,13.06,15.92,20.79c4.33,7.8,7.55,16.25,9.81,24.97l-32.7,5.32
							c-0.44-6.07-1.46-12.12-3.38-18.03c-2.06-5.83-4.91-11.52-8.56-16.93c-7.42-10.74-17.9-20.26-29.95-27.95
							c-12.01-7.81-25.44-14.04-39.38-19.1C1217.22,2082.23,1202.7,2078.23,1187.82,2075.71"/>
					</g>
					<g>
						<path class="st3" d="M1134.33,2192.77c15.9-0.83,31.98,0.32,47.95,2.91c15.97,2.61,31.86,6.98,47.2,13.56
							c15.27,6.64,30.08,15.61,42.85,27.58c12.92,11.81,23.41,26.71,31.01,42.99l-31.1,11.43c-3.6-13.33-9.48-26.24-18.21-37.61
							c-8.57-11.49-19.76-21.44-32.36-29.78c-12.65-8.29-26.69-15.01-41.43-20.14C1165.49,2198.58,1150.1,2194.7,1134.33,2192.77"/>
					</g>
					<g>
						<path class="st9" d="M2147.23,1630.95c-26.09-20.96-117.08-53.34-179.05,49.44c-69.42,115.14-74.99,266.94,16.21,295.76
							C2147.88,2027.82,2259.21,1720.93,2147.23,1630.95"/>
					</g>
					<g>
						<path class="st7" d="M1984.38,1976.14c-39.22-12.38-60.5-47.5-66.59-92.64c10.73,14.21,25.01,24.77,43.15,30.52
							c128.14,40.5,224.22-139.19,205.92-262.15C2244.01,1760.54,2136.91,2024.35,1984.38,1976.14"/>
					</g>
					<g>
						<path class="st3" d="M2020.48,2001.84c-13.95,0-28.05-2.17-42.11-6.62c-32.93-10.41-57.42-34.64-70.8-70.08
							c-25.41-67.29-7.93-169.8,43.49-255.09c33.77-56.01,75.28-73.87,104.16-79c48.02-8.53,88.32,11.26,104.54,24.29
							c71.21,57.22,63.62,185.08,15.14,275.63C2136.82,1962.13,2080.13,2001.84,2020.48,2001.84z M2078.48,1629.04
							c-5.3,0-10.75,0.43-16.28,1.42c-30.14,5.35-56.01,25.62-76.89,60.27c-44.72,74.16-61.3,164.76-40.33,220.3
							c9.02,23.89,24.31,39.39,45.43,46.07c82.35,26.02,135.03-58.46,149.22-84.97c39.89-74.52,49.35-181.96-4.94-225.57l0,0
							C2124.91,1638.68,2103.41,1629.04,2078.48,1629.04z"/>
					</g>
					<g>
						<path class="st3" d="M1960.32,1665.82c15.79-6.79,31.38-8.2,46.17-7.85c14.83,0.46,29.12,2.89,42.83,6.85
							c13.69,3.98,26.91,9.35,38.97,16.74c6.01,3.71,11.72,7.98,16.64,13.05c4.91,4.99,9.01,11.14,10.34,17.89
							c-2.69-6.33-7.59-11.06-13.02-14.74c-5.44-3.71-11.43-6.5-17.6-8.76c-12.36-4.47-25.4-6.86-38.34-7.89
							c-12.95-1.03-25.94-0.5-38.18,1.66c-12.17,2.13-23.83,6.18-32.08,12.22L1960.32,1665.82z"/>
					</g>
					<g>
						<path class="st3" d="M1935.29,1785.34c10.61,20.91,29.72,39.24,52.07,52.69c11.21,6.75,23.32,12.34,36.01,16.39
							c12.69,3.92,26.06,6.62,39.69,5.02c-13.06,4.35-27.47,4.48-41.37,3.1c-13.97-1.5-27.83-4.72-41.3-9.48
							c-13.47-4.77-26.6-11.05-38.98-19.15c-12.36-8.1-23.99-18.1-33.82-30.38L1935.29,1785.34z"/>
					</g>
					<g>
						<path class="st3" d="M919.19,2057.7l10.55-8.24l5.31-4.14c1.8-1.34,3.73-2.48,5.6-3.73l11.36-7.36l11.98-6.41
							c16.21-8.11,33.56-14.71,51.7-18.52c18.09-3.91,36.78-5.58,55.33-5.52c9.27,0.02,18.52,0.48,27.52,1.03l6.69,0.42l6.39,0.32
							c2.22,0.15,3.85,0.01,5.79,0.05c0.44-0.01,0.99,0.02,1.34-0.02l0.87-0.17c0.57-0.1,1.13-0.17,1.69-0.22l3.51,32.94l-4.98-0.12
							l-2.47-0.12c-0.76-0.07-1.32-0.19-1.98-0.28c-2.48-0.41-5.3-0.75-7.48-1.24l-6.83-1.42l-6.51-1.44
							c-8.61-1.9-17.02-3.64-25.47-4.97c-16.88-2.7-33.94-3.83-51.08-2.85c-17.15,0.88-34.19,4.47-50.83,9.77l-12.43,4.34
							l-12.06,5.39c-2,0.93-4.08,1.74-6.03,2.78l-5.81,3.23L919.19,2057.7z"/>
					</g>
					<g>
						<path class="st3" d="M1954.19,2811.55c8.39,10.01,15.99,20.76,22.94,32.03c6.9,11.31,13.1,23.23,17.89,36.1
							c4.73,12.86,8.24,26.8,7.83,42.11c-0.07,15.18-5.99,32.01-17.1,44.82l-23.17-23.68c7.34-5.48,13.11-13.44,15.6-24.13
							c2.7-10.53,2.58-22.76,0.81-34.95c-1.77-12.24-5.1-24.59-9.34-36.7C1965.37,2835.04,1960.27,2823.07,1954.19,2811.55"/>
					</g>
					<g>
						<path class="st3" d="M1878.7,2815.69c7.31,12.9,13.65,26.42,19.22,40.36c5.45,13.97,10.19,28.41,13.15,43.59
							c2.98,15.15,4.39,31.18,1.55,47.99c-1.4,8.38-4.27,16.94-8.75,25c-4.47,8.06-10.73,15.46-18.13,21.43l-18.68-27.37
							c9.41-4.86,17.05-13.44,21.52-25.38c4.46-11.84,6.16-25.81,6.01-39.94c-0.07-14.18-1.92-28.65-4.63-43
							C1887.15,2844.02,1883.48,2829.71,1878.7,2815.69"/>
					</g>
				</g>
			</g>
		</g>
	</g>
	<g>
		<g>
			<path class="st11" d="M2053.21,676.31c-20.9-34.19-31.2-75.23-26.79-118.16c10.7-104.21,103.85-180.01,208.06-169.31
				c104.21,10.7,180.01,103.85,169.31,208.06s-103.85,180.01-208.06,169.31c-28.99-2.98-55.76-12.35-79.1-26.55l-87.78,19.69
				L2053.21,676.31z"/>
		</g>
		<g class="st17">
			<g>
				<path class="st11" d="M2230.75,425.13c-97.34-9.99-185.02,55.5-204.87,149.12c-0.02-6.69,0.26-13.43,0.96-20.24
					C2037.54,449.8,2130.69,374,2234.9,384.7c104.21,10.7,180.01,103.85,169.31,208.06c-0.7,6.83-1.78,13.53-3.17,20.1
					C2400.68,517.12,2328.13,435.13,2230.75,425.13z"/>
			</g>
		</g>
		<g>
			<path class="st3" d="M2215.26,783.9c-7.02,0-14.1-0.36-21.23-1.09c-28.51-2.93-55.44-11.47-80.16-25.42l-81.36,18.25
				c-5.78,1.28-11.79-0.55-15.83-4.87c-4.04-4.31-5.5-10.43-3.84-16.1l22.33-76.12c-20.99-37.24-29.74-79.29-25.35-122.08
				c11.62-113.19,113.16-195.81,226.36-184.21c54.83,5.63,104.19,32.28,138.98,75.03c34.79,42.75,50.85,96.5,45.22,151.33
				C2409.5,704.66,2319.66,783.9,2215.26,783.9z M2116.63,722.98c3.04,0,6.04,0.83,8.67,2.43c22.04,13.41,46.31,21.55,72.13,24.2
				c94.83,9.74,180.01-59.53,189.76-154.42c4.72-45.97-8.74-91.02-37.91-126.86c-29.17-35.84-70.55-58.18-116.51-62.9
				c-94.88-9.76-180.01,59.53-189.76,154.42c-3.9,37.97,4.55,75.23,24.42,107.75c2.46,4.02,3.1,8.88,1.78,13.4l-16.39,55.87
				l60.15-13.49C2114.19,723.11,2115.41,722.98,2116.63,722.98z"/>
		</g>
		<g class="st13">
			<path class="st3" d="M2052.14,674.49c51.95,43.94,123.53,63.19,194.6,45.5c78.82-19.62,136.9-79.64,157.79-152.49
				c0.5,9.66,0.28,19.48-0.74,29.4c-10.7,104.21-103.85,180.01-208.06,169.31c-28.99-2.98-55.76-12.35-79.1-26.55l-87.78,19.69
				l24.36-83.04C2052.84,675.71,2052.5,675.09,2052.14,674.49z"/>
		</g>
		<g>
			<path class="st20" d="M2154.45,524.26L2154.45,524.26c16.42-16.42,43.03-13.47,59.44,2.94l2.55,2.55l2.55-2.55
				c16.42-16.42,43.03-19.36,59.44-2.94h0c16.42,16.42,16.42,43.03,0,59.44l-2.55,2.55l-51.61,51.61c-4.33,4.33-11.34,4.33-15.67,0
				l-51.61-51.61l-2.55-2.55C2138.04,567.29,2138.04,540.68,2154.45,524.26z"/>
		</g>
	</g>
</g>
</svg>
