<?xml version="1.0" encoding="utf-8"?>
<!-- Generator: Adobe Illustrator 28.2.0, SVG Export Plug-In . SVG Version: 6.00 Build 0)  -->
<svg version="1.1" id="Layer_1" xmlns="http://www.w3.org/2000/svg" xmlns:xlink="http://www.w3.org/1999/xlink" x="0px" y="0px"
	 viewBox="0 0 2466.88 2085.85" style="enable-background:new 0 0 2466.88 2085.85;" xml:space="preserve">
<style type="text/css">
	.st0{opacity:0.3;}
	.st1{fill:#FFFFFF;}
	.st2{fill:#5F7093;}
	.st3{fill:#000072;}
	.st4{opacity:0.6;}
	.st5{fill:#FF4379;}
</style>
<g class="st0">
	<path class="st1" d="M1193.56,1325.83c-0.71,12.57,22.74,24.11,52.38,25.79c29.64,1.67,54.24-7.16,54.95-19.73
		c0.71-12.57-23.37-13.04-53.01-14.71C1218.25,1315.5,1194.27,1313.27,1193.56,1325.83z"/>
</g>
<g>
	<path class="st2" d="M760.68,441.37C749.04,646.97,576.54,802.84,375.4,789.5c-91.6-6.07-173.45-46.28-234.24-107.63
		C68.48,608.63,25.87,505.03,32.21,393.06C43.86,187.38,216.36,31.51,417.58,44.85c89.03,5.9,168.71,43.92,228.93,102.38
		C722.33,220.83,767.17,326.76,760.68,441.37z"/>
</g>
<g class="st0">
	<path class="st3" d="M754.63,434.71c-11.65,205.61-184.14,361.47-385.28,348.13c-91.6-6.07-173.45-46.28-234.24-107.63
		c85.44-193.85,237.32-411.8,505.36-534.63C716.28,214.17,761.12,320.11,754.63,434.71z"/>
</g>
<g class="st4">
	<path class="st1" d="M391.69,111.02c89.03,5.9,168.71,43.92,228.93,102.38C696.44,287,741.29,392.94,734.8,507.54
		c-1.63,28.71-6.49,56.41-14.03,82.85c22.72-44.86,36.87-95.21,39.92-149.02c6.49-114.6-38.35-220.54-114.17-294.13
		C586.28,88.78,506.6,50.76,417.58,44.85C244.47,33.37,92.72,147.18,46.26,310.15C110.34,183.6,243.15,101.17,391.69,111.02z"/>
</g>
<g>
	<path class="st3" d="M457.81,817.53c-27.66,4.19-55.96,5.4-84.54,3.51C155.21,806.58-11.94,613.77,0.67,391.24
		C6.87,281.8,54.86,182.1,135.82,110.52c78.72-69.6,179.52-104.12,283.82-97.2c218.06,14.46,385.22,207.27,372.61,429.8
		c-6.2,109.45-54.2,209.14-135.16,280.72C599.94,774.37,531.14,806.41,457.81,817.53z M344.71,79.34
		c-61.44,9.31-119.09,36.17-167.02,78.54C109.48,218.2,69.02,302.34,63.78,394.81C53.13,582.88,193.84,745.79,377.46,757.96
		c87.34,5.79,171.78-23.15,237.76-81.48c68.22-60.32,108.68-144.47,113.91-236.93l0,0C739.78,251.48,599.07,88.58,415.46,76.4
		C391.56,74.81,367.86,75.83,344.71,79.34z"/>
</g>
<g>
	<path class="st2" d="M1646.92,438.13c-7.1,222.49,163.57,409.99,381.19,418.8c99.11,4.01,190.98-29.81,262.22-88.81
		c85.15-70.41,140.88-176.94,144.74-298.1c7.1-222.57-163.57-410.07-381.26-418.88c-96.32-3.9-185.66,27.83-256.01,83.77
		C1709.22,205.33,1650.88,314.12,1646.92,438.13z"/>
</g>
<g class="st0">
	<path class="st3" d="M1646.92,438.13c-7.1,222.49,163.57,409.99,381.19,418.8c99.11,4.01,190.98-29.81,262.22-88.81
		c-73.39-218.34-215.96-470.25-492.53-633.21C1709.22,205.33,1650.88,314.12,1646.92,438.13z"/>
</g>
<g class="st4">
	<path class="st1" d="M2075.34,125.28c-96.32-3.9-185.66,27.83-256.01,83.77c-88.58,70.43-146.92,179.22-150.88,303.23
		c-0.99,31.07,1.6,61.42,7.19,90.73c-20.15-50.86-30.57-106.65-28.71-164.88c3.96-124.01,62.3-232.8,150.88-303.23
		c70.36-55.94,159.69-87.67,256.01-83.77c187.29,7.58,339.64,147.45,374.07,328.09C2371.03,235.72,2236.05,131.78,2075.34,125.28z"
		/>
</g>
<g>
	<path class="st3" d="M2106.94,884.14c-26.23,3.98-53,5.47-80.08,4.37c-234.56-9.49-419.17-212-411.54-451.43l0,0
		c3.76-117.77,52.68-226.21,137.75-305.35C1835.72,54.86,1943,15.02,2055.12,19.56c234.56,9.49,419.17,212,411.54,451.42
		c-3.76,117.77-52.68,226.21-137.75,305.35C2266.21,834.64,2189.34,871.65,2106.94,884.14z M1678.51,439.1
		c-6.53,204.88,150.88,378.16,350.91,386.25c95.16,3.86,186.22-30,256.43-95.31c72.63-67.56,114.41-160.28,117.62-261.07
		c6.54-204.88-150.88-378.15-350.9-386.24c-95.15-3.85-186.22,30-256.43,95.3C1723.5,245.59,1681.73,338.31,1678.51,439.1
		L1678.51,439.1z"/>
</g>
<g>
	<path class="st1" d="M147.49,1048.51c0,0-498.43,924.36,907.7,1001.38c1425.11,78.06,1356.08-903.87,1096.31-1407.54
		c-245.86-476.7-606.88-565.69-1062.71-548.88C610.45,111.1,147.58,507.44,147.49,1048.51z"/>
	<path class="st3" d="M1522.25,2036.23c-138.82,21.04-295.02,26.92-467.27,17.48C567,2026.99,253.7,1895.89,123.79,1664.06
		c-153.52-273.95,9.88-597.33,19.87-616.51c0.29-254.47,104.14-494.37,292.48-675.62C613.46,201.28,851.28,98.4,1088.64,89.63
		c262.99-9.7,451.68,17.97,611.8,89.71c189.52,84.91,338.18,235.79,454.46,461.25c142.09,275.5,234.89,710.15,28.78,1028.42
		c-85.86,132.59-216.61,232.88-388.6,298.06C1713.54,1997.97,1622.41,2021.05,1522.25,2036.23z M986.76,106.96
		c-419.19,63.53-835.34,417.93-835.43,941.54l0,0.97l-0.46,0.85c-1.77,3.3-175.79,332.73-20.35,610.04
		c128.56,229.35,439.73,359.12,924.89,385.69c560.71,30.7,938.16-97.55,1121.86-381.23c204.32-315.51,111.99-747.05-29.16-1020.73
		C1901.99,166.94,1546.69,80.42,1088.92,97.3C1055.03,98.54,1020.84,101.79,986.76,106.96z"/>
</g>
<g>
	<path class="st2" d="M665.3,1305.98c0,0,48.13-177.07,148.16-301.48c54.16-67.36,61.13-164.16,12.14-236.25
		c-31.15-45.84-84.62-81.96-175.97-80.19c-243.6,4.73-407.78,322.13-407.74,515.67c0.03,193.54,114.39,282.21,190.9,287.63
		C509.28,1496.78,628.87,1471.22,665.3,1305.98z"/>
</g>
<g>
	<path class="st2" d="M1438.2,1357.13c0,0-56.22-191.1-170.59-325.84c-61.93-72.96-70.8-177.28-16.14-254.58
		c34.76-49.15,94.85-87.66,198.16-85.07c275.49,6.9,464.37,350.02,466.3,558.5c1.93,208.48-126.48,303.14-212.92,308.41
		C1616.56,1563.82,1481.08,1535.4,1438.2,1357.13z"/>
</g>
<g class="st0">
	<path class="st3" d="M2151.5,642.34c-134.63-261.04-303.8-405.81-504.16-480.62c141.6,79.22,264.01,206.21,365.62,403.22
		C2258.64,1041.3,2323.93,1970,976.07,1896.17c-609.15-33.36-840.35-234.87-912.06-443.48c22.65,259.27,221.85,555.05,991.18,597.19
		C2480.3,2127.94,2411.27,1146.01,2151.5,642.34z"/>
</g>
<g class="st0">
	<path class="st3" d="M1294.74,1276.81c-7.53-14.65-28.42-13.81-34.08,1.6c-15.08,41.07-48.14,99.08-113.26,90.78
		c-99.48-12.69-58.2-138.88-58.2-138.88l-81.35-2.04l-81.74-2.05c0,0,17.08,153.34-75.93,138.66c-54.17-8.55-75.57-49.01-84-81.3
		c-4.12-15.77-24.78-18.8-32.92-4.85c-29.17,49.93-54.07,139.88,84.02,205.44l187.78-93.52l224.26,86.85
		C1347.57,1422.74,1321.38,1328.68,1294.74,1276.81z"/>
</g>
<g>
	<path class="st3" d="M1162.82,1114.45c-55.09-33.98-152.42-34.55-152.42-34.55s-97.27-4.3-153.48,26.89
		c-18.71,10.38-26.64,33.78-19.14,54.28c15.72,42.97,58.57,115.52,169.2,118.3c110.62,2.77,155.94-67.58,173.11-109.72
		C1188.28,1149.54,1181.16,1125.76,1162.82,1114.45z"/>
</g>
<g>
	<path class="st3" d="M1036.29,1256.31c0.35,3.94,0.45,6.19,0.61,9.17l0.23,8.24c0.07,5.45,0.03,10.84-0.29,16.24
		c-0.61,10.78-1.74,21.56-3.63,32.38c-3.91,21.53-10.51,43.5-22.03,64.36c-5.84,10.4-12.88,20.47-21.18,29.74
		c-8.32,9.31-18.33,17.3-28.94,24.09c-21.57,13.3-45.97,20.27-68.87,21.45c-23.31,1.27-43.85-0.88-65.71-5.67
		c-21.55-5.13-43.9-14.48-62.66-30.49c-18.61-15.97-32.48-38.54-36.11-61.53c-3.61-23.04,0.16-45.26,12.4-64.25
		c2.35-3.64,7.2-4.69,10.84-2.35c1.65,1.06,2.77,2.64,3.28,4.38l0.36,1.24c5.34,18.27,10.4,34.97,16.93,48.48
		c6.49,13.57,14.18,24.42,25.53,31.85c11.2,7.48,25.42,11.81,40.95,13.92c15.41,2.07,33.12,2.23,47.56,0
		c30.13-4.29,50.01-19.25,62.89-44.49c6.18-12.72,10.98-27.42,13.52-43.24c1.37-7.87,2.38-15.96,2.9-24.11
		c0.23-4.07,0.52-8.16,0.59-12.2l0.07-5.98l-0.1-5.04l-0.05-2.31c-0.39-19.61,15.2-35.83,34.82-36.22
		C1018.95,1223.6,1034.6,1237.94,1036.29,1256.31z"/>
</g>
<g>
	<path class="st3" d="M1036.36,1255.55l-0.32,5.41l-0.16,6.43c-0.06,4.34,0.08,8.73,0.21,13.11c0.3,8.76,1.16,17.47,2.47,25.94
		c2.39,17.03,7.34,32.92,14.12,46.65c6.99,13.66,16.23,24.76,27.94,33.19c5.71,4.44,12.56,7.56,19.53,10.69
		c7.31,2.59,14.9,5.05,23.16,6.5c16.07,3.08,35.24,3.85,52.42,2.55c4.41-0.19,8.47-1.01,12.78-1.38c4-0.87,8.31-1.31,12.1-2.5
		c7.95-1.88,15.21-4.73,21.75-8.36c13.33-7.14,22.57-18.17,30.33-32.19c7.74-14.01,13.63-31.76,19.24-51.16l0.35-1.19
		c1.19-4.13,5.51-6.51,9.63-5.31c2.01,0.58,3.61,1.91,4.58,3.59c11.98,20.78,14.8,44.92,9.12,69.39
		c-5.74,24.44-22.9,47.21-44.01,61.93c-10.52,7.47-21.93,13.26-33.43,17.4c-5.77,2.37-11.54,3.74-17.35,5.55
		c-5.75,1.24-11.62,2.88-17.36,3.61c-23.23,3.55-45.15,4.59-69.42,2.16c-11.97-1.07-24.14-3.91-36.18-7.61
		c-11.95-4.28-23.99-9.21-35.03-16.48c-22.51-13.79-40.64-34.58-52.84-56.76c-12.35-22.28-19.16-46-22.87-69.21
		c-1.8-11.66-2.73-23.27-3.05-34.87c-0.19-5.8-0.04-11.6,0.21-17.44l0.54-8.83c0.28-3.19,0.47-5.59,1.01-9.81
		c2.52-19.46,20.33-33.19,39.78-30.67c18.59,2.41,31.95,18.77,30.91,37.2L1036.36,1255.55z"/>
</g>
<g>
	<path class="st3" d="M1224.85,1519.12c-12.58,74.79-56.09,165.05-193.26,161.61c-51.87-1.3-91.21-14.76-121.01-34.91
		c-104.07-70.39-92.04-222.15-92.04-222.15c167.01,32.7,181.97-98.07,182.12-144.4c12.85,229.14,226.7,142.7,226.7,142.7
		S1233.68,1466.74,1224.85,1519.12z"/>
</g>
<g>
	<path class="st5" d="M1224.85,1519.12c-12.58,74.79-56.09,165.05-193.26,161.61c-51.87-1.3-91.21-14.76-121.01-34.91
		C910.58,1645.82,988.41,1413.4,1224.85,1519.12z"/>
</g>
<g>
	<path class="st3" d="M1081.5,1705.44c-15.89,2.41-32.76,3.39-50.58,2.95c-73.51-1.84-131.95-26.26-173.68-72.6
		c-75.69-84.03-66.71-209.02-66.29-214.3c0.62-7.86,4.57-15.08,10.85-19.84c6.28-4.77,14.3-6.63,22.03-5.11
		c51.3,10.04,89.68,3.89,114.11-18.28c30.4-27.59,34.84-74.81,35.03-98.12c-0.29-5.28-0.47-10.67-0.56-16.16
		c-0.22-14.8,11.29-27.2,26.03-28.03c14.78-0.87,27.63,10.05,29.14,24.78c0.1,1.02,0.75,7.8,0.73,18.26
		c3.35,56.23,20.01,94.7,49.64,114.44c54.08,36.06,138.23,3.17,139.07,2.83c7.88-3.15,16.81-2.5,24.15,1.75
		c7.34,4.26,12.35,11.64,13.54,20.05c0.81,5.76,19.02,141.99-56.33,226.55C1168.83,1677.78,1129.65,1698.14,1081.5,1705.44z
		 M846.33,1455.57c2.14,36.5,12.04,99,52.23,143.43c31.15,34.44,76.16,52.64,133.76,54.09c54.81,1.37,96.79-13.86,124.78-45.27
		c39.17-43.96,45.17-110.18,44.81-149.46c-39.07,9.01-102.86,15.44-154.35-18.71c-19.39-12.86-35.07-30.01-46.99-51.35
		c-6.69,10.94-14.95,21.36-25.14,30.67C943.6,1448.01,900.27,1460.26,846.33,1455.57z"/>
</g>
<g>
	
		<ellipse transform="matrix(1 -8.261050e-03 8.261050e-03 1 -9.2399 8.1099)" class="st1" cx="977.06" cy="1122.52" rx="87.87" ry="19.05"/>
	<path class="st3" d="M1026.56,1141.77c-15.24,2.31-32.75,3.49-49.17,3.63c-31.71,0.27-91.75-3.99-92.02-22.07
		c-0.03-2.43,0.98-4.72,3.03-6.81c10.98-11.23,52.29-16.57,88.35-16.89c31.71-0.27,91.74,3.99,92.01,22.08
		c0.03,2.43-0.98,4.72-3.03,6.81C1059.75,1134.64,1044.78,1139.01,1026.56,1141.77z M929.28,1110.77
		c-18.93,2.87-31.48,7.1-35.4,11.11c-0.63,0.64-0.85,1.12-0.84,1.34c0.08,5.17,29.89,14.99,84.28,14.52
		c44.99-0.39,76.31-7.8,82.93-14.58c0.63-0.64,0.85-1.12,0.84-1.34c-0.08-5.17-29.89-14.99-84.28-14.52
		C958.43,1107.46,942.34,1108.79,929.28,1110.77z"/>
</g>
<g>
	<path class="st3" d="M1526.43,2063.67c-140.77,21.33-298.86,27.31-472.98,17.77c-498.1-27.28-819.03-163.14-953.89-403.8
		c-153.65-274.19-10.08-584.48,16.35-636.9c2.12-259.56,108.81-503.9,300.96-688.83C599.06,176.59,843.56,70.86,1087.62,61.87
		c267.47-9.86,459.98,18.55,624.18,92.12c195.49,87.58,348.5,242.59,467.79,473.86c145.49,282.1,239.98,728,27.41,1056.24
		c-89.15,137.67-224.43,241.61-402.07,308.94C1721.6,2024.62,1628.57,2048.19,1526.43,2063.67z M175.32,1063.49
		c-1.9,3.55-168.35,320.19-20.4,583.63c123.72,220.31,427.2,345.2,901.99,371.21c550.04,30.1,919.13-93.89,1097.02-368.59
		c197.86-305.54,107.21-725.83-30.54-992.9c-239.39-464.15-586.27-548.27-1033.45-531.78c-437.94,16.15-910.76,373.8-910.85,923.46
		C179.1,1053.74,177.8,1058.88,175.32,1063.49z M147.49,1048.5l0.07-0.01L147.49,1048.5z"/>
</g>
<g>
	<path class="st3" d="M1649.15,978.38c-19.9,7.48-40.18,15.57-58.87,24.46c-18.83,8.94-36.6,18.85-53.15,29.77l-6.16,4.15
		c-2.11,1.28-4.15,2.66-6.04,4.22c-3.91,2.96-7.75,5.98-11.7,8.82c-3.81,3-7.34,6.33-11.03,9.44l-5.51,4.68l-5.07,5.11
		c-14.24,12.98-25.44,28.52-36.62,44.21l-42.98-47.72c2-0.88,3.19-1.32,4.51-1.83c1.35-0.54,2.62-1,3.84-1.41
		c2.5-0.84,5.01-1.68,7.43-2.36c4.9-1.51,9.77-2.68,14.63-3.87c9.72-2.3,19.53-3.72,29.33-4.8c19.62-2.07,39.46-1.53,58.83,1.47
		c19.34,3.07,38.31,8.32,55.77,16.58c17.66,7.69,33.48,18.81,47.62,30.88c4.88,4.16,5.45,11.5,1.29,16.37
		c-2.9,3.4-7.35,4.71-11.42,3.78l-1.41-0.33c-8.45-1.95-16.24-4.73-24.34-6.43c-8.12-1.62-15.94-3.53-23.98-4.36
		c-15.8-2.49-31.57-3.08-47.05-2.32c-15.47,0.51-30.78,2.67-45.68,6.08c-7.45,1.67-14.76,3.82-21.92,6.04
		c-3.54,1.2-7.1,2.36-10.45,3.73c-1.74,0.63-3.32,1.34-4.91,2.03c-0.83,0.33-1.6,0.65-2.26,0.96c-0.7,0.31-1.53,0.71-1.53,0.71
		l-4.66,1.54c-17.36,5.75-36.1-3.66-41.85-21.03c-3.24-9.79-1.58-20.15,3.53-28.24l10.22-15.99l5.2-7.96
		c1.78-2.62,3.95-4.96,5.91-7.44l12.15-14.66c4.25-4.7,9.03-8.89,13.55-13.33l6.88-6.55c2.4-2.05,4.93-3.95,7.43-5.86
		c5.04-3.79,9.96-7.76,15.12-11.32c10.66-6.61,21.18-13.42,32.56-18.4c22.37-10.65,45.92-18.03,69.77-21.8
		c24.01-3.63,47.65-4.42,72.19,0.07c6.36,1.17,10.57,7.27,9.41,13.62c-0.77,4.18-3.67,7.44-7.38,8.84L1649.15,978.38z"/>
</g>
<g>
	<g>
		<g>
			
				<ellipse transform="matrix(0.173 -0.9849 0.9849 0.173 -545.1227 1406.5701)" class="st3" cx="565.02" cy="1027.89" rx="192.56" ry="138.04"/>
		</g>
	</g>
	<g>
		<g>
			
				<ellipse transform="matrix(0.1423 -0.9898 0.9898 0.1423 -443.187 1382.8397)" class="st1" cx="576.33" cy="947.15" rx="60.76" ry="52.88"/>
		</g>
	</g>
	<g class="st0">
		<g>
			<path class="st1" d="M514.08,1071.15c-20.8-4.32-40.98,9.4-45.06,30.64c-4.08,21.24,9.48,41.97,30.28,46.29
				c20.8,4.32,40.97-9.4,45.05-30.64C548.44,1096.2,534.88,1075.47,514.08,1071.15z"/>
		</g>
	</g>
</g>
</svg>
